<svg width="69" height="73" viewBox="0 0 69 73" fill="none" xmlns="http://www.w3.org/2000/svg">
<path d="M24.1631 69.823H20.21C20.0907 69.8229 19.9753 69.7782 19.8834 69.6965C19.7915 69.6149 19.7289 69.5014 19.7063 69.3756L18.83 64.4711C16.7839 64.0253 14.8381 63.1558 13.1011 61.9113L9.25067 64.7249C9.15172 64.7973 9.03235 64.8302 8.91321 64.818C8.79406 64.8058 8.68262 64.7493 8.59815 64.6582L5.80429 61.6449C5.72017 61.5541 5.66807 61.4347 5.65692 61.3072C5.64578 61.1796 5.67628 61.0519 5.7432 60.9459L8.35172 56.8182C7.19519 54.9483 6.3895 52.8537 5.97987 50.652L1.41893 49.7219C1.30119 49.6982 1.19487 49.631 1.11837 49.532C1.04186 49.4329 0.999991 49.3083 1 49.1796V44.9316C1.00004 44.8032 1.04175 44.6789 1.11794 44.58C1.19413 44.4811 1.30002 44.4139 1.41738 44.3898L5.97987 43.4608C6.3907 41.2591 7.19742 39.1648 8.3548 37.2952L5.74628 33.1686C5.67922 33.0625 5.64864 32.9347 5.65979 32.807C5.67094 32.6794 5.72312 32.5599 5.80737 32.4691L8.59815 29.4547C8.68256 29.3635 8.79396 29.3068 8.91311 29.2945C9.03226 29.2822 9.15166 29.3151 9.25067 29.3874L13.1011 32.2009C14.838 30.9562 16.7839 30.0865 18.83 29.6406L19.7063 24.7372C19.7288 24.6113 19.7913 24.4977 19.8832 24.4159C19.9751 24.3342 20.0907 24.2894 20.21 24.2892H24.1631C24.2827 24.2892 24.3986 24.334 24.4907 24.416C24.5829 24.498 24.6455 24.612 24.6677 24.7383L25.5338 29.6395C27.5827 30.0803 29.5318 30.9471 31.2714 32.191L35.1116 29.3879C35.2106 29.3156 35.33 29.2828 35.4491 29.2951C35.5683 29.3074 35.6797 29.364 35.7641 29.4552L38.5575 32.468C38.6417 32.5588 38.6939 32.6783 38.705 32.8059C38.7162 32.9336 38.6856 33.0614 38.6185 33.1675L36.0131 37.2924C37.1763 39.1606 37.9857 41.2566 38.3952 43.4608L42.9464 44.392C43.0638 44.4161 43.1697 44.4833 43.2459 44.5822C43.322 44.6811 43.3638 44.8054 43.3638 44.9338V49.1818C43.3639 49.3102 43.3222 49.4347 43.246 49.5337C43.1698 49.6327 43.0639 49.7 42.9464 49.7241L38.3952 50.6542C37.9854 52.8573 37.176 54.9522 36.0131 56.8193L38.6206 60.9453C38.6875 61.0513 38.718 61.1791 38.7069 61.3066C38.6957 61.4341 38.6436 61.5535 38.5595 61.6443L35.7662 64.6576C35.6817 64.7487 35.5703 64.8053 35.4511 64.8174C35.332 64.8296 35.2126 64.7967 35.1136 64.7243L31.2735 61.9212C29.5338 63.1652 27.5848 64.0319 25.5359 64.4728L24.6672 69.3745C24.6449 69.5006 24.5823 69.6144 24.4903 69.6963C24.3983 69.7782 24.2825 69.823 24.1631 69.823ZM20.6351 68.7196H23.738L24.5902 63.8979C24.6094 63.7879 24.6593 63.6867 24.7334 63.6079C24.8074 63.529 24.9019 63.4763 25.0045 63.4566C27.1525 63.0475 29.1921 62.1415 30.9819 60.8013C31.0671 60.7379 31.1682 60.7038 31.2718 60.7033C31.3755 60.7028 31.4768 60.736 31.5625 60.7986L35.3395 63.557L37.5338 61.1903L34.9668 57.1304C34.9083 57.038 34.8773 56.9286 34.8779 56.8167C34.8786 56.7049 34.9108 56.5959 34.9704 56.5043C36.2243 54.5838 37.0709 52.3912 37.4506 50.081C37.4689 49.9708 37.518 49.8692 37.5914 49.7896C37.6647 49.7101 37.7589 49.6565 37.8613 49.6358L42.3386 48.7206V45.3884L37.8613 44.4731C37.759 44.4525 37.6649 44.399 37.5915 44.3195C37.5182 44.2401 37.469 44.1386 37.4506 44.0285C37.0698 41.7197 36.2227 39.5286 34.9689 37.6096C34.9093 37.518 34.877 37.409 34.8764 37.2972C34.8758 37.1853 34.9067 37.076 34.9653 36.9835L37.5322 32.9242L35.338 30.5575L31.561 33.3159C31.4755 33.3789 31.3743 33.4126 31.2707 33.4126C31.167 33.4126 31.0658 33.3789 30.9804 33.3159C29.1914 31.9754 27.1528 31.0687 25.0055 30.6584C24.903 30.6387 24.8084 30.586 24.7344 30.5071C24.6604 30.4283 24.6104 30.3271 24.5912 30.2171L23.739 25.3954H20.6351L19.7731 30.2176C19.7536 30.3267 19.704 30.4268 19.6308 30.5051C19.5575 30.5833 19.4639 30.636 19.3624 30.6562C17.2181 31.0722 15.183 31.982 13.3968 33.3231C13.3115 33.3872 13.2101 33.4219 13.1061 33.4227C13.002 33.4235 12.9002 33.3903 12.8141 33.3275L9.02734 30.5608L6.83209 32.9236L9.39904 36.9829C9.45764 37.0748 9.48901 37.1835 9.48901 37.2949C9.48901 37.4063 9.45764 37.515 9.39904 37.6069C8.15219 39.5297 7.30877 41.7205 6.92707 44.0279C6.90865 44.1381 6.85951 44.2396 6.78615 44.319C6.7128 44.3984 6.61871 44.452 6.51636 44.4726L2.02678 45.3917V48.7255L6.51379 49.6397C6.61621 49.6603 6.71035 49.714 6.78371 49.7935C6.85707 49.873 6.90618 49.9746 6.9245 50.0849C7.30601 52.3923 8.14945 54.5832 9.39647 56.5059C9.45508 56.5978 9.48644 56.7065 9.48644 56.8179C9.48644 56.9293 9.45508 57.038 9.39647 57.1299L6.82953 61.1897L9.02375 63.5564L12.811 60.7886C12.8971 60.7258 12.9989 60.6926 13.103 60.6934C13.2071 60.6942 13.3084 60.7289 13.3937 60.7931C15.1796 62.1346 17.2148 63.0444 19.3593 63.4599C19.4612 63.4803 19.555 63.5334 19.6283 63.6122C19.7016 63.6909 19.751 63.7917 19.77 63.9012L20.6351 68.7196Z" fill="#1B6EB8" stroke="#1B6EB8"/>
<path d="M22.176 57.6711C20.2223 57.6711 18.3124 57.0486 16.688 55.8822C15.0635 54.7158 13.7974 53.058 13.0498 51.1183C12.3021 49.1787 12.1065 47.0444 12.4877 44.9853C12.8688 42.9262 13.8096 41.0348 15.1911 39.5503C16.5726 38.0657 18.3327 37.0548 20.2488 36.6452C22.165 36.2356 24.1512 36.4458 25.9562 37.2492C27.7611 38.0527 29.3039 39.4132 30.3893 41.1588C31.4747 42.9044 32.0541 44.9567 32.0541 47.0562C32.0526 49.8709 31.0114 52.57 29.1592 54.5603C27.307 56.5506 24.7953 57.6695 22.176 57.6711ZM22.176 37.5446C20.4253 37.5446 18.714 38.1024 17.2584 39.1476C15.8028 40.1927 14.6683 41.6782 13.9984 43.4163C13.3285 45.1543 13.1532 47.0667 13.4947 48.9118C13.8362 50.7569 14.6792 52.4517 15.9171 53.7819C17.155 55.1121 18.7322 56.018 20.4492 56.385C22.1661 56.752 23.9459 56.5636 25.5632 55.8437C27.1806 55.1238 28.563 53.9047 29.5356 52.3405C30.5082 50.7764 31.0273 48.9374 31.0273 47.0562C31.0262 44.5339 30.0933 42.1153 28.4336 40.3318C26.7739 38.5483 24.5232 37.5458 22.176 37.5446Z" fill="#1B6EB8" stroke="#1B6EB8"/>
<path d="M53.1667 37.0089C53.0791 37.009 52.9929 36.9849 52.9163 36.9391C52.8397 36.8932 52.7754 36.827 52.7293 36.7468L50.7785 33.3501C49.1327 33.6323 47.4521 33.5761 45.8258 33.1846L43.6937 36.4622C43.6251 36.5675 43.5244 36.6438 43.409 36.6779C43.2936 36.7119 43.1708 36.7016 43.0617 36.6486L40.1287 35.2247C40.0201 35.172 39.932 35.0802 39.8795 34.9653C39.8269 34.8503 39.8132 34.7193 39.8407 34.5947L40.6986 30.7169C39.3456 29.6676 38.1911 28.3508 37.2969 26.8369L33.6431 27.5332C33.5254 27.5564 33.4038 27.5344 33.2997 27.471C33.1956 27.4075 33.1156 27.3067 33.0737 27.1862L31.932 23.9582C31.8894 23.8381 31.8873 23.7057 31.9259 23.5841C31.9645 23.4624 32.0415 23.359 32.1435 23.2918L35.3049 21.2048C35.0383 19.4353 35.0874 17.6275 35.4497 15.8777L32.411 13.591C32.3131 13.5175 32.2421 13.4097 32.2103 13.286C32.1784 13.1624 32.1877 13.0307 32.2364 12.9135L33.5491 9.75626C33.598 9.63892 33.6835 9.54361 33.7909 9.4868C33.8982 9.42999 34.0206 9.41524 34.137 9.44511L37.7564 10.3725C38.7306 8.91937 39.9525 7.67803 41.3573 6.71427L40.716 2.78353C40.6954 2.65712 40.7164 2.52692 40.7754 2.41535C40.8344 2.30377 40.9278 2.21781 41.0395 2.17226L44.0433 0.945317C44.1551 0.899567 44.2782 0.897185 44.3914 0.938581C44.5047 0.979978 44.6009 1.06256 44.6635 1.17206L46.6072 4.56712C48.2539 4.28074 49.9362 4.33372 51.5645 4.72325L53.693 1.45728C53.7616 1.35192 53.8623 1.27563 53.9777 1.24158C54.0931 1.20753 54.2159 1.21787 54.325 1.27081L57.2579 2.69471C57.3665 2.74747 57.4547 2.83919 57.5072 2.95415C57.5598 3.0691 57.5735 3.20011 57.546 3.32473L56.6881 7.20196C58.0446 8.24816 59.2016 9.56437 60.0965 11.0792L63.7415 10.3863C63.8592 10.3639 63.9804 10.3863 64.0843 10.4496C64.1883 10.513 64.2684 10.6133 64.3109 10.7333L65.4526 13.9612C65.4951 14.0812 65.4972 14.2134 65.4587 14.335C65.4202 14.4565 65.3434 14.5598 65.2416 14.6271L62.0879 16.7108C62.355 18.4819 62.3027 20.2918 61.9339 22.0417L64.9721 24.3279C65.07 24.4014 65.1409 24.5092 65.1728 24.6329C65.2047 24.7565 65.1954 24.8882 65.1467 25.0053L63.8329 28.1632C63.784 28.2804 63.6986 28.3756 63.5914 28.4324C63.4842 28.4892 63.3619 28.5041 63.2456 28.4743L59.6354 27.5519C58.659 29.005 57.4342 30.2452 56.0263 31.2063L56.6742 35.1315C56.6952 35.2581 56.6743 35.3885 56.6152 35.5003C56.5562 35.6121 56.4626 35.6983 56.3508 35.7439L53.3464 36.9703C53.2892 36.9946 53.2283 37.0077 53.1667 37.0089ZM51.0341 32.1921C51.1217 32.1921 51.2078 32.2162 51.2843 32.2621C51.3608 32.308 51.425 32.3741 51.471 32.4542L53.3803 35.7792L55.5879 34.8772L54.9574 31.0325C54.9393 30.9224 54.9528 30.8091 54.996 30.7074C55.0391 30.6057 55.11 30.5206 55.1993 30.4632C56.7095 29.4922 58.0057 28.1806 58.9983 26.619C59.057 26.5271 59.1402 26.4565 59.237 26.4164C59.3338 26.3763 59.4396 26.3687 59.5405 26.3945L63.069 27.2965L64.0362 24.9722L61.0586 22.7324C60.9729 22.6685 60.9074 22.5782 60.8707 22.4733C60.834 22.3685 60.8279 22.2541 60.8532 22.1454C61.2871 20.3122 61.3416 18.3991 61.0129 16.5409C60.9936 16.4311 61.0058 16.3176 61.0479 16.2154C61.09 16.1133 61.1599 16.0273 61.2485 15.9688L64.3371 13.9275L63.4977 11.5553L59.9322 12.2355C59.8297 12.2556 59.7239 12.2414 59.6291 12.195C59.5343 12.1485 59.455 12.072 59.4019 11.9757C58.4992 10.3519 57.2762 8.96061 55.8189 7.89984C55.7329 7.83692 55.6668 7.74742 55.6292 7.64319C55.5916 7.53895 55.5843 7.42491 55.6084 7.31616L56.4488 3.51671L54.2926 2.46852L52.2083 5.66497C52.149 5.75648 52.0653 5.82654 51.9683 5.86594C51.8712 5.90533 51.7653 5.9122 51.6646 5.88564C49.9581 5.42511 48.1789 5.36864 46.4501 5.72014C46.3478 5.74094 46.2421 5.72786 46.147 5.68264C46.0518 5.63742 45.9717 5.56219 45.9172 5.46692L44.0176 2.13971L41.8101 3.04282L42.4308 6.89026C42.4486 6.99974 42.4353 7.11247 42.3925 7.21367C42.3497 7.31486 42.2795 7.39982 42.191 7.45739C40.685 8.43156 39.393 9.74446 38.4037 11.3059C38.3452 11.3984 38.2618 11.4696 38.1647 11.51C38.0676 11.5504 37.9613 11.5581 37.8601 11.5321L34.3177 10.6246L33.351 12.9483L36.3286 15.1881C36.4139 15.2519 36.4791 15.3419 36.5158 15.4463C36.5525 15.5507 36.5588 15.6646 36.534 15.7729C36.1059 17.6068 36.0534 19.5186 36.38 21.3764C36.3993 21.4862 36.3872 21.5998 36.3451 21.7021C36.303 21.8044 36.233 21.8905 36.1443 21.949L33.0481 23.9902L33.8875 26.3625L37.4658 25.6801C37.5683 25.6605 37.6739 25.6749 37.7686 25.7213C37.8633 25.7677 37.9427 25.8439 37.9961 25.9399C38.8986 27.5633 40.1189 28.9563 41.5724 30.0224C41.6578 30.0854 41.7235 30.1747 41.7608 30.2786C41.7981 30.3825 41.8052 30.496 41.7813 30.6044L40.9409 34.4038L43.0982 35.4548L45.1866 32.2462C45.2461 32.1542 45.3302 32.0838 45.4277 32.0443C45.5253 32.0049 45.6318 31.9984 45.7329 32.0255C47.4375 32.4867 49.2148 32.546 50.9427 32.1993C50.9729 32.1938 51.0035 32.1914 51.0341 32.1921Z" fill="#1B6EB8" stroke="#1B6EB8"/>
<path d="M48.6906 27.7003C47.2078 27.7013 45.753 27.2666 44.4835 26.4432C43.2141 25.6198 42.1784 24.439 41.4884 23.0286C40.7985 21.6182 40.4806 20.0319 40.5692 18.4413C40.6578 16.8508 41.1494 15.3166 41.991 14.0047C42.8325 12.6928 43.9919 11.6531 45.3437 10.9983C46.6954 10.3434 48.1881 10.0982 49.6602 10.2893C51.1323 10.4804 52.5277 11.1004 53.6955 12.0823C54.8633 13.0642 55.759 14.3706 56.2856 15.8601C56.7517 17.1823 56.9125 18.6063 56.754 20.01C56.5956 21.4137 56.1227 22.7551 55.3759 23.9193C54.6292 25.0834 53.6308 26.0356 52.4664 26.6942C51.302 27.3527 50.0064 27.6979 48.6906 27.7003ZM48.6942 11.3269C47.8301 11.328 46.9735 11.4984 46.1662 11.8295C44.5247 12.5061 43.1777 13.8174 42.3894 15.5061C41.6011 17.1949 41.4284 19.1392 41.9051 20.9577C42.3819 22.7761 43.4737 24.3376 44.9665 25.3357C46.4592 26.3339 48.2452 26.6967 49.974 26.353C51.7028 26.0093 53.2497 24.9839 54.3113 23.4779C55.3729 21.9719 55.8726 20.094 55.7123 18.2126C55.5521 16.3312 54.7435 14.582 53.4451 13.3081C52.1467 12.0342 50.4523 11.3276 48.6942 11.3269Z" fill="#1B6EB8" stroke="#1B6EB8"/>
<path d="M52.2976 72C52.2605 71.9999 52.2235 71.9955 52.1872 71.9868L49.6875 71.3954C49.5713 71.3679 49.4675 71.2978 49.3939 71.1972C49.3204 71.0966 49.2818 70.9716 49.2845 70.8437L49.36 67.7487C48.1821 67.1765 47.112 66.3765 46.2032 65.3886L43.5335 66.5472C43.4226 66.5952 43.2995 66.6002 43.1855 66.5611C43.0715 66.522 42.9738 66.4414 42.9093 66.3331L41.5288 64.0216C41.4642 63.9133 41.4367 63.7843 41.4513 63.6567C41.4658 63.529 41.5214 63.4109 41.6083 63.3226L43.6999 61.1942C43.2432 59.8949 43.0125 58.5166 43.0191 57.1277L40.3695 55.914C40.2598 55.8637 40.1698 55.7739 40.115 55.66C40.0602 55.5462 40.044 55.4154 40.0692 55.2901L40.6103 52.6012C40.6355 52.4758 40.7005 52.3638 40.7942 52.2843C40.8879 52.2049 41.0044 52.163 41.1237 52.1659L44.0115 52.2492C44.5423 50.9841 45.2842 49.8341 46.2006 48.8563L45.1286 45.9787C45.0842 45.8596 45.0797 45.7276 45.1161 45.6054C45.1524 45.4831 45.2273 45.3783 45.3278 45.309L47.4789 43.8261C47.5795 43.7567 47.6995 43.7273 47.8182 43.7428C47.9368 43.7583 48.0467 43.8178 48.1289 43.911L50.1101 46.1586C51.316 45.6556 52.6008 45.4073 53.8942 45.4271L55.0237 42.5798C55.0706 42.4617 55.1545 42.3648 55.2608 42.306C55.3671 42.2472 55.4891 42.2301 55.6059 42.2576L58.1061 42.849C58.2223 42.8766 58.3259 42.9467 58.3994 43.0474C58.4728 43.148 58.5114 43.2729 58.5086 43.4007L58.4336 46.494C59.6143 47.0631 60.6865 47.8624 61.5961 48.8514L64.2626 47.6989C64.3735 47.651 64.4965 47.6461 64.6104 47.6852C64.7243 47.7243 64.8219 47.8048 64.8864 47.9129L66.2669 50.2239C66.3314 50.3321 66.3589 50.461 66.3444 50.5885C66.33 50.716 66.2746 50.8341 66.1879 50.9224L64.1014 53.0475C64.5591 54.348 64.7885 55.7285 64.7781 57.1189L67.4267 58.3326C67.5365 58.3829 67.6266 58.4728 67.6814 58.5868C67.7362 58.7008 67.7523 58.8317 67.727 58.9571L67.1854 61.6455C67.1612 61.7713 67.0965 61.884 67.0025 61.9635C66.9086 62.0431 66.7915 62.0844 66.672 62.0802L63.7919 61.9996C63.2591 63.265 62.5146 64.4144 61.5956 65.3908L62.6737 68.2596C62.7185 68.3788 62.7232 68.511 62.6869 68.6335C62.6506 68.756 62.5757 68.861 62.475 68.9304L60.3234 70.4145C60.223 70.4836 60.1032 70.513 59.9848 70.4976C59.8664 70.4822 59.7567 70.423 59.6745 70.3301L57.6866 68.083C56.4984 68.5625 55.2395 68.808 53.9702 68.808H53.904L52.771 71.664C52.7315 71.7638 52.6656 71.8489 52.5814 71.9087C52.4972 71.9684 52.3985 72.0002 52.2976 72ZM50.3221 70.4161L51.9921 70.8106L53.0949 68.0318C53.1348 67.9281 53.2036 67.8403 53.2919 67.7804C53.3801 67.7205 53.4835 67.6915 53.5878 67.6974C54.9695 67.7546 56.3465 67.4912 57.625 66.9251C57.7205 66.8834 57.8253 66.8735 57.9261 66.8967C58.0268 66.92 58.1187 66.9752 58.1898 67.0553L60.1232 69.2405L61.5607 68.2475L60.5134 65.4532C60.4745 65.3495 60.4659 65.2356 60.4886 65.1265C60.5114 65.0175 60.5644 64.9184 60.6407 64.8425C61.6567 63.8323 62.4565 62.5971 62.9848 61.2223C63.0246 61.1194 63.0924 61.0319 63.1794 60.9712C63.2664 60.9106 63.3684 60.8796 63.472 60.8825L66.2736 60.9614L66.633 59.1651L64.0547 57.9812C63.9591 57.9372 63.8782 57.8631 63.8226 57.7686C63.767 57.6742 63.7395 57.5638 63.7436 57.4521C63.801 55.9654 63.5546 54.4832 63.0218 53.1098C62.9819 53.0067 62.9721 52.893 62.9936 52.7838C63.0152 52.6745 63.0671 52.5749 63.1424 52.498L65.1739 50.4319L64.2524 48.8872L61.6577 50.0088C61.5612 50.0505 61.4552 50.0598 61.3537 50.0354C61.2523 50.0109 61.1601 49.954 61.0894 49.872C60.15 48.7788 58.9988 47.9206 57.7169 47.358C57.6207 47.3154 57.5387 47.2423 57.4819 47.1485C57.4252 47.0547 57.3963 46.9446 57.3992 46.8327L57.4731 43.8228L55.803 43.4283L54.7008 46.1967C54.661 46.3 54.5925 46.3876 54.5047 46.4476C54.4169 46.5075 54.3139 46.5368 54.21 46.5315C52.827 46.4761 51.4493 46.7425 50.1711 47.3127C50.0751 47.3556 49.9691 47.3661 49.8674 47.3429C49.7656 47.3196 49.6728 47.2637 49.6013 47.1825L47.674 44.9956L46.2365 45.9887L47.2792 48.7874C47.3175 48.8904 47.3259 49.0034 47.3035 49.1116C47.281 49.2199 47.2288 49.3184 47.1535 49.3942C46.1405 50.4065 45.3436 51.6424 44.8175 53.0171C44.7765 53.1195 44.7082 53.2066 44.6212 53.2673C44.5343 53.3281 44.4325 53.3599 44.3288 53.3586L41.519 53.277L41.1596 55.0738L43.7379 56.2572C43.8333 56.3009 43.9142 56.3747 43.9699 56.4689C44.0255 56.5631 44.0533 56.6731 44.0495 56.7846C43.9961 58.2708 44.2441 59.7517 44.7765 61.1247C44.8164 61.2279 44.8262 61.3417 44.8045 61.4511C44.7829 61.5605 44.7309 61.6602 44.6553 61.737L42.6197 63.8086L43.5438 65.3533L46.1441 64.2279C46.2406 64.1862 46.3466 64.1769 46.4481 64.2013C46.5496 64.2257 46.6418 64.2827 46.7125 64.3647C47.652 65.4569 48.8016 66.3163 50.0813 66.8831C50.1771 66.926 50.2586 66.9991 50.3149 67.0928C50.3713 67.1865 50.3999 67.2963 50.397 67.4078L50.3221 70.4161Z" fill="#1B6EB8" stroke="#1B6EB8"/>
<path d="M53.9119 64.1766C52.7714 64.1797 51.6497 63.8635 50.6574 63.2592C49.665 62.655 48.8363 61.7834 48.2526 60.7304C47.669 59.6773 47.3506 58.4791 47.3288 57.2537C47.3071 56.0282 47.5826 54.8178 48.1284 53.7416C48.6742 52.6654 49.4714 51.7605 50.4416 51.1159C51.4117 50.4714 52.5213 50.1094 53.6612 50.0657C54.801 50.022 55.9318 50.298 56.9422 50.8666C57.9527 51.4352 58.8079 52.2767 59.4237 53.3084C60.0608 54.3732 60.4196 55.6026 60.4623 56.8677C60.505 58.1328 60.23 59.3869 59.6663 60.4985C59.1026 61.6101 58.2708 62.5381 57.2584 63.1853C56.2459 63.8324 55.09 64.1748 53.9119 64.1766ZM53.8858 51.1668C52.6542 51.1684 51.4583 51.6105 50.4865 52.4235C49.5148 53.2364 48.8225 54.3739 48.519 55.6564C48.2155 56.939 48.3179 58.2936 48.8102 59.5067C49.3025 60.7197 50.1566 61.7221 51.2378 62.3558C52.3189 62.9894 53.5656 63.2182 54.7812 63.0061C55.9968 62.794 57.1121 62.153 57.9512 61.1843C58.7902 60.2156 59.3052 58.9743 59.4151 57.6562C59.5249 56.3381 59.2232 55.0182 58.5576 53.9048C58.055 53.064 57.3637 52.3726 56.5473 51.8941C55.7309 51.4157 54.8157 51.1655 53.8858 51.1668Z" fill="#1B6EB8" stroke="#1B6EB8"/>
<path d="M24.1631 69.823H20.21C20.0907 69.8229 19.9753 69.7782 19.8834 69.6965C19.7915 69.6149 19.7289 69.5014 19.7063 69.3756L18.83 64.4711C16.7839 64.0253 14.8381 63.1558 13.1011 61.9113L9.25067 64.7249C9.15172 64.7973 9.03235 64.8302 8.91321 64.818C8.79406 64.8058 8.68262 64.7493 8.59815 64.6582L5.80429 61.6449C5.72017 61.5541 5.66807 61.4347 5.65692 61.3072C5.64578 61.1796 5.67628 61.0519 5.7432 60.9459L8.35172 56.8182C7.19519 54.9483 6.3895 52.8537 5.97987 50.652L1.41893 49.7219C1.30119 49.6982 1.19487 49.631 1.11837 49.532C1.04186 49.4329 0.999991 49.3083 1 49.1796V44.9316C1.00004 44.8032 1.04175 44.6789 1.11794 44.58C1.19413 44.4811 1.30002 44.4139 1.41738 44.3898L5.97987 43.4608C6.3907 41.2591 7.19742 39.1648 8.3548 37.2952L5.74628 33.1686C5.67922 33.0625 5.64864 32.9347 5.65979 32.807C5.67094 32.6794 5.72312 32.5599 5.80737 32.4691L8.59815 29.4547C8.68256 29.3635 8.79396 29.3068 8.91311 29.2945C9.03226 29.2822 9.15166 29.3151 9.25067 29.3874L13.1011 32.2009C14.838 30.9562 16.7839 30.0865 18.83 29.6406L19.7063 24.7372C19.7288 24.6113 19.7913 24.4977 19.8832 24.4159C19.9751 24.3342 20.0907 24.2894 20.21 24.2892H24.1631C24.2827 24.2892 24.3986 24.334 24.4907 24.416C24.5829 24.498 24.6455 24.612 24.6677 24.7383L25.5338 29.6395C27.5827 30.0803 29.5318 30.9471 31.2714 32.191L35.1116 29.3879C35.2106 29.3156 35.33 29.2828 35.4491 29.2951C35.5683 29.3074 35.6797 29.364 35.7641 29.4552L38.5575 32.468C38.6417 32.5588 38.6939 32.6783 38.705 32.8059C38.7162 32.9336 38.6856 33.0614 38.6185 33.1675L36.0131 37.2924C37.1763 39.1606 37.9857 41.2566 38.3952 43.4608L42.9464 44.392C43.0638 44.4161 43.1697 44.4833 43.2459 44.5822C43.322 44.6811 43.3638 44.8054 43.3638 44.9338V49.1818C43.3639 49.3102 43.3222 49.4347 43.246 49.5337C43.1698 49.6327 43.0639 49.7 42.9464 49.7241L38.3952 50.6542C37.9854 52.8573 37.176 54.9522 36.0131 56.8193L38.6206 60.9453C38.6875 61.0513 38.718 61.1791 38.7069 61.3066C38.6957 61.4341 38.6436 61.5535 38.5595 61.6443L35.7662 64.6576C35.6817 64.7487 35.5703 64.8053 35.4511 64.8174C35.332 64.8296 35.2126 64.7967 35.1136 64.7243L31.2735 61.9212C29.5338 63.1652 27.5848 64.0319 25.5359 64.4728L24.6672 69.3745C24.6449 69.5006 24.5823 69.6144 24.4903 69.6963C24.3983 69.7782 24.2825 69.823 24.1631 69.823ZM20.6351 68.7196H23.738L24.5902 63.8979C24.6094 63.7879 24.6593 63.6867 24.7334 63.6079C24.8074 63.529 24.9019 63.4763 25.0045 63.4566C27.1525 63.0475 29.1921 62.1415 30.9819 60.8013C31.0671 60.7379 31.1682 60.7038 31.2718 60.7033C31.3755 60.7028 31.4768 60.736 31.5625 60.7986L35.3395 63.557L37.5338 61.1903L34.9668 57.1304C34.9083 57.038 34.8773 56.9286 34.8779 56.8167C34.8786 56.7049 34.9108 56.5959 34.9704 56.5043C36.2243 54.5838 37.0709 52.3912 37.4506 50.081C37.4689 49.9708 37.518 49.8692 37.5914 49.7896C37.6647 49.7101 37.7589 49.6565 37.8613 49.6358L42.3386 48.7206V45.3884L37.8613 44.4731C37.759 44.4525 37.6649 44.399 37.5915 44.3195C37.5182 44.2401 37.469 44.1386 37.4506 44.0285C37.0698 41.7197 36.2227 39.5286 34.9689 37.6096C34.9093 37.518 34.877 37.409 34.8764 37.2972C34.8758 37.1853 34.9067 37.076 34.9653 36.9835L37.5322 32.9242L35.338 30.5575L31.561 33.3159C31.4755 33.3789 31.3743 33.4126 31.2707 33.4126C31.167 33.4126 31.0658 33.3789 30.9804 33.3159C29.1914 31.9754 27.1528 31.0687 25.0055 30.6584C24.903 30.6387 24.8084 30.586 24.7344 30.5071C24.6604 30.4283 24.6104 30.3271 24.5912 30.2171L23.739 25.3954H20.6351L19.7731 30.2176C19.7536 30.3267 19.704 30.4268 19.6308 30.5051C19.5575 30.5833 19.4639 30.636 19.3624 30.6562C17.2181 31.0722 15.183 31.982 13.3968 33.3231C13.3115 33.3872 13.2101 33.4219 13.1061 33.4227C13.002 33.4235 12.9002 33.3903 12.8141 33.3275L9.02734 30.5608L6.83209 32.9236L9.39904 36.9829C9.45764 37.0748 9.48901 37.1835 9.48901 37.2949C9.48901 37.4063 9.45764 37.515 9.39904 37.6069C8.15219 39.5297 7.30877 41.7205 6.92707 44.0279C6.90865 44.1381 6.85951 44.2396 6.78615 44.319C6.7128 44.3984 6.61871 44.452 6.51636 44.4726L2.02678 45.3917V48.7255L6.51379 49.6397C6.61621 49.6603 6.71035 49.714 6.78371 49.7935C6.85707 49.873 6.90618 49.9746 6.9245 50.0849C7.30601 52.3923 8.14945 54.5832 9.39647 56.5059C9.45508 56.5978 9.48644 56.7065 9.48644 56.8179C9.48644 56.9293 9.45508 57.038 9.39647 57.1299L6.82953 61.1897L9.02375 63.5564L12.811 60.7886C12.8971 60.7258 12.9989 60.6926 13.103 60.6934C13.2071 60.6942 13.3084 60.7289 13.3937 60.7931C15.1796 62.1346 17.2148 63.0444 19.3593 63.4599C19.4612 63.4803 19.555 63.5334 19.6283 63.6122C19.7016 63.6909 19.751 63.7917 19.77 63.9012L20.6351 68.7196Z" fill="#1B6EB8" stroke="#1B6EB8"/>
<path d="M22.176 57.6711C20.2223 57.6711 18.3124 57.0486 16.688 55.8822C15.0635 54.7158 13.7974 53.058 13.0498 51.1183C12.3021 49.1787 12.1065 47.0444 12.4877 44.9853C12.8688 42.9262 13.8096 41.0348 15.1911 39.5503C16.5726 38.0657 18.3327 37.0548 20.2488 36.6452C22.165 36.2356 24.1512 36.4458 25.9562 37.2492C27.7611 38.0527 29.3039 39.4132 30.3893 41.1588C31.4747 42.9044 32.0541 44.9567 32.0541 47.0562C32.0526 49.8709 31.0114 52.57 29.1592 54.5603C27.307 56.5506 24.7953 57.6695 22.176 57.6711ZM22.176 37.5446C20.4253 37.5446 18.714 38.1024 17.2584 39.1476C15.8028 40.1927 14.6683 41.6782 13.9984 43.4163C13.3285 45.1543 13.1532 47.0667 13.4947 48.9118C13.8362 50.7569 14.6792 52.4517 15.9171 53.7819C17.155 55.1121 18.7322 56.018 20.4492 56.385C22.1661 56.752 23.9459 56.5636 25.5632 55.8437C27.1806 55.1238 28.563 53.9047 29.5356 52.3405C30.5082 50.7764 31.0273 48.9374 31.0273 47.0562C31.0262 44.5339 30.0933 42.1153 28.4336 40.3318C26.7739 38.5483 24.5232 37.5458 22.176 37.5446Z" fill="#1B6EB8" stroke="#1B6EB8"/>
<path d="M53.1667 37.0089C53.0791 37.009 52.9929 36.9849 52.9163 36.9391C52.8397 36.8932 52.7754 36.827 52.7293 36.7468L50.7785 33.3501C49.1327 33.6323 47.4521 33.5761 45.8258 33.1846L43.6937 36.4622C43.6251 36.5675 43.5244 36.6438 43.409 36.6779C43.2936 36.7119 43.1708 36.7016 43.0617 36.6486L40.1287 35.2247C40.0201 35.172 39.932 35.0802 39.8795 34.9653C39.8269 34.8503 39.8132 34.7193 39.8407 34.5947L40.6986 30.7169C39.3456 29.6676 38.1911 28.3508 37.2969 26.8369L33.6431 27.5332C33.5254 27.5564 33.4038 27.5344 33.2997 27.471C33.1956 27.4075 33.1156 27.3067 33.0737 27.1862L31.932 23.9582C31.8894 23.8381 31.8873 23.7057 31.9259 23.5841C31.9645 23.4624 32.0415 23.359 32.1435 23.2918L35.3049 21.2048C35.0383 19.4353 35.0874 17.6275 35.4497 15.8777L32.411 13.591C32.3131 13.5175 32.2421 13.4097 32.2103 13.286C32.1784 13.1624 32.1877 13.0307 32.2364 12.9135L33.5491 9.75626C33.598 9.63892 33.6835 9.54361 33.7909 9.4868C33.8982 9.42999 34.0206 9.41524 34.137 9.44511L37.7564 10.3725C38.7306 8.91937 39.9525 7.67803 41.3573 6.71427L40.716 2.78353C40.6954 2.65712 40.7164 2.52692 40.7754 2.41535C40.8344 2.30377 40.9278 2.21781 41.0395 2.17226L44.0433 0.945317C44.1551 0.899567 44.2782 0.897185 44.3914 0.938581C44.5047 0.979978 44.6009 1.06256 44.6635 1.17206L46.6072 4.56712C48.2539 4.28074 49.9362 4.33372 51.5645 4.72325L53.693 1.45728C53.7616 1.35192 53.8623 1.27563 53.9777 1.24158C54.0931 1.20753 54.2159 1.21787 54.325 1.27081L57.2579 2.69471C57.3665 2.74747 57.4547 2.83919 57.5072 2.95415C57.5598 3.0691 57.5735 3.20011 57.546 3.32473L56.6881 7.20196C58.0446 8.24816 59.2016 9.56437 60.0965 11.0792L63.7415 10.3863C63.8592 10.3639 63.9804 10.3863 64.0843 10.4496C64.1883 10.513 64.2684 10.6133 64.3109 10.7333L65.4526 13.9612C65.4951 14.0812 65.4972 14.2134 65.4587 14.335C65.4202 14.4565 65.3434 14.5598 65.2416 14.6271L62.0879 16.7108C62.355 18.4819 62.3027 20.2918 61.9339 22.0417L64.9721 24.3279C65.07 24.4014 65.1409 24.5092 65.1728 24.6329C65.2047 24.7565 65.1954 24.8882 65.1467 25.0053L63.8329 28.1632C63.784 28.2804 63.6986 28.3756 63.5914 28.4324C63.4842 28.4892 63.3619 28.5041 63.2456 28.4743L59.6354 27.5519C58.659 29.005 57.4342 30.2452 56.0263 31.2063L56.6742 35.1315C56.6952 35.2581 56.6743 35.3885 56.6152 35.5003C56.5562 35.6121 56.4626 35.6983 56.3508 35.7439L53.3464 36.9703C53.2892 36.9946 53.2283 37.0077 53.1667 37.0089ZM51.0341 32.1921C51.1217 32.1921 51.2078 32.2162 51.2843 32.2621C51.3608 32.308 51.425 32.3741 51.471 32.4542L53.3803 35.7792L55.5879 34.8772L54.9574 31.0325C54.9393 30.9224 54.9528 30.8091 54.996 30.7074C55.0391 30.6057 55.11 30.5206 55.1993 30.4632C56.7095 29.4922 58.0057 28.1806 58.9983 26.619C59.057 26.5271 59.1402 26.4565 59.237 26.4164C59.3338 26.3763 59.4396 26.3687 59.5405 26.3945L63.069 27.2965L64.0362 24.9722L61.0586 22.7324C60.9729 22.6685 60.9074 22.5782 60.8707 22.4733C60.834 22.3685 60.8279 22.2541 60.8532 22.1454C61.2871 20.3122 61.3416 18.3991 61.0129 16.5409C60.9936 16.4311 61.0058 16.3176 61.0479 16.2154C61.09 16.1133 61.1599 16.0273 61.2485 15.9688L64.3371 13.9275L63.4977 11.5553L59.9322 12.2355C59.8297 12.2556 59.7239 12.2414 59.6291 12.195C59.5343 12.1485 59.455 12.072 59.4019 11.9757C58.4992 10.3519 57.2762 8.96061 55.8189 7.89984C55.7329 7.83692 55.6668 7.74742 55.6292 7.64319C55.5916 7.53895 55.5843 7.42491 55.6084 7.31616L56.4488 3.51671L54.2926 2.46852L52.2083 5.66497C52.149 5.75648 52.0653 5.82654 51.9683 5.86594C51.8712 5.90533 51.7653 5.9122 51.6646 5.88564C49.9581 5.42511 48.1789 5.36864 46.4501 5.72014C46.3478 5.74094 46.2421 5.72786 46.147 5.68264C46.0518 5.63742 45.9717 5.56219 45.9172 5.46692L44.0176 2.13971L41.8101 3.04282L42.4308 6.89026C42.4486 6.99974 42.4353 7.11247 42.3925 7.21367C42.3497 7.31486 42.2795 7.39982 42.191 7.45739C40.685 8.43156 39.393 9.74446 38.4037 11.3059C38.3452 11.3984 38.2618 11.4696 38.1647 11.51C38.0676 11.5504 37.9613 11.5581 37.8601 11.5321L34.3177 10.6246L33.351 12.9483L36.3286 15.1881C36.4139 15.2519 36.4791 15.3419 36.5158 15.4463C36.5525 15.5507 36.5588 15.6646 36.534 15.7729C36.1059 17.6068 36.0534 19.5186 36.38 21.3764C36.3993 21.4862 36.3872 21.5998 36.3451 21.7021C36.303 21.8044 36.233 21.8905 36.1443 21.949L33.0481 23.9902L33.8875 26.3625L37.4658 25.6801C37.5683 25.6605 37.6739 25.6749 37.7686 25.7213C37.8633 25.7677 37.9427 25.8439 37.9961 25.9399C38.8986 27.5633 40.1189 28.9563 41.5724 30.0224C41.6578 30.0854 41.7235 30.1747 41.7608 30.2786C41.7981 30.3825 41.8052 30.496 41.7813 30.6044L40.9409 34.4038L43.0982 35.4548L45.1866 32.2462C45.2461 32.1542 45.3302 32.0838 45.4277 32.0443C45.5253 32.0049 45.6318 31.9984 45.7329 32.0255C47.4375 32.4867 49.2148 32.546 50.9427 32.1993C50.9729 32.1938 51.0035 32.1914 51.0341 32.1921Z" fill="#1B6EB8" stroke="#1B6EB8"/>
<path d="M48.6906 27.7003C47.2078 27.7013 45.753 27.2666 44.4835 26.4432C43.2141 25.6198 42.1784 24.439 41.4884 23.0286C40.7985 21.6182 40.4806 20.0319 40.5692 18.4413C40.6578 16.8508 41.1494 15.3166 41.991 14.0047C42.8325 12.6928 43.9919 11.6531 45.3437 10.9983C46.6954 10.3434 48.1881 10.0982 49.6602 10.2893C51.1323 10.4804 52.5277 11.1004 53.6955 12.0823C54.8633 13.0642 55.759 14.3706 56.2856 15.8601C56.7517 17.1823 56.9125 18.6063 56.754 20.01C56.5956 21.4137 56.1227 22.7551 55.3759 23.9193C54.6292 25.0834 53.6308 26.0356 52.4664 26.6942C51.302 27.3527 50.0064 27.6979 48.6906 27.7003ZM48.6942 11.3269C47.8301 11.328 46.9735 11.4984 46.1662 11.8295C44.5247 12.5061 43.1777 13.8174 42.3894 15.5061C41.6011 17.1949 41.4284 19.1392 41.9051 20.9577C42.3819 22.7761 43.4737 24.3376 44.9665 25.3357C46.4592 26.3339 48.2452 26.6967 49.974 26.353C51.7028 26.0093 53.2497 24.9839 54.3113 23.4779C55.3729 21.9719 55.8726 20.094 55.7123 18.2126C55.5521 16.3312 54.7435 14.582 53.4451 13.3081C52.1467 12.0342 50.4523 11.3276 48.6942 11.3269Z" fill="#1B6EB8" stroke="#1B6EB8"/>
<path d="M52.2976 72C52.2605 71.9999 52.2235 71.9955 52.1872 71.9868L49.6875 71.3954C49.5713 71.3679 49.4675 71.2978 49.3939 71.1972C49.3204 71.0966 49.2818 70.9716 49.2845 70.8437L49.36 67.7487C48.1821 67.1765 47.112 66.3765 46.2032 65.3886L43.5335 66.5472C43.4226 66.5952 43.2995 66.6002 43.1855 66.5611C43.0715 66.522 42.9738 66.4414 42.9093 66.3331L41.5288 64.0216C41.4642 63.9133 41.4367 63.7843 41.4513 63.6567C41.4658 63.529 41.5214 63.4109 41.6083 63.3226L43.6999 61.1942C43.2432 59.8949 43.0125 58.5166 43.0191 57.1277L40.3695 55.914C40.2598 55.8637 40.1698 55.7739 40.115 55.66C40.0602 55.5462 40.044 55.4154 40.0692 55.2901L40.6103 52.6012C40.6355 52.4758 40.7005 52.3638 40.7942 52.2843C40.8879 52.2049 41.0044 52.163 41.1237 52.1659L44.0115 52.2492C44.5423 50.9841 45.2842 49.8341 46.2006 48.8563L45.1286 45.9787C45.0842 45.8596 45.0797 45.7276 45.1161 45.6054C45.1524 45.4831 45.2273 45.3783 45.3278 45.309L47.4789 43.8261C47.5795 43.7567 47.6995 43.7273 47.8182 43.7428C47.9368 43.7583 48.0467 43.8178 48.1289 43.911L50.1101 46.1586C51.316 45.6556 52.6008 45.4073 53.8942 45.4271L55.0237 42.5798C55.0706 42.4617 55.1545 42.3648 55.2608 42.306C55.3671 42.2472 55.4891 42.2301 55.6059 42.2576L58.1061 42.849C58.2223 42.8766 58.3259 42.9467 58.3994 43.0474C58.4728 43.148 58.5114 43.2729 58.5086 43.4007L58.4336 46.494C59.6143 47.0631 60.6865 47.8624 61.5961 48.8514L64.2626 47.6989C64.3735 47.651 64.4965 47.6461 64.6104 47.6852C64.7243 47.7243 64.8219 47.8048 64.8864 47.9129L66.2669 50.2239C66.3314 50.3321 66.3589 50.461 66.3444 50.5885C66.33 50.716 66.2746 50.8341 66.1879 50.9224L64.1014 53.0475C64.5591 54.348 64.7885 55.7285 64.7781 57.1189L67.4267 58.3326C67.5365 58.3829 67.6266 58.4728 67.6814 58.5868C67.7362 58.7008 67.7523 58.8317 67.727 58.9571L67.1854 61.6455C67.1612 61.7713 67.0965 61.884 67.0025 61.9635C66.9086 62.0431 66.7915 62.0844 66.672 62.0802L63.7919 61.9996C63.2591 63.265 62.5146 64.4144 61.5956 65.3908L62.6737 68.2596C62.7185 68.3788 62.7232 68.511 62.6869 68.6335C62.6506 68.756 62.5757 68.861 62.475 68.9304L60.3234 70.4145C60.223 70.4836 60.1032 70.513 59.9848 70.4976C59.8664 70.4822 59.7567 70.423 59.6745 70.3301L57.6866 68.083C56.4984 68.5625 55.2395 68.808 53.9702 68.808H53.904L52.771 71.664C52.7315 71.7638 52.6656 71.8489 52.5814 71.9087C52.4972 71.9684 52.3985 72.0002 52.2976 72ZM50.3221 70.4161L51.9921 70.8106L53.0949 68.0318C53.1348 67.9281 53.2036 67.8403 53.2919 67.7804C53.3801 67.7205 53.4835 67.6915 53.5878 67.6974C54.9695 67.7546 56.3465 67.4912 57.625 66.9251C57.7205 66.8834 57.8253 66.8735 57.9261 66.8967C58.0268 66.92 58.1187 66.9752 58.1898 67.0553L60.1232 69.2405L61.5607 68.2475L60.5134 65.4532C60.4745 65.3495 60.4659 65.2356 60.4886 65.1265C60.5114 65.0175 60.5644 64.9184 60.6407 64.8425C61.6567 63.8323 62.4565 62.5971 62.9848 61.2223C63.0246 61.1194 63.0924 61.0319 63.1794 60.9712C63.2664 60.9106 63.3684 60.8796 63.472 60.8825L66.2736 60.9614L66.633 59.1651L64.0547 57.9812C63.9591 57.9372 63.8782 57.8631 63.8226 57.7686C63.767 57.6742 63.7395 57.5638 63.7436 57.4521C63.801 55.9654 63.5546 54.4832 63.0218 53.1098C62.9819 53.0067 62.9721 52.893 62.9936 52.7838C63.0152 52.6745 63.0671 52.5749 63.1424 52.498L65.1739 50.4319L64.2524 48.8872L61.6577 50.0088C61.5612 50.0505 61.4552 50.0598 61.3537 50.0354C61.2523 50.0109 61.1601 49.954 61.0894 49.872C60.15 48.7788 58.9988 47.9206 57.7169 47.358C57.6207 47.3154 57.5387 47.2423 57.4819 47.1485C57.4252 47.0547 57.3963 46.9446 57.3992 46.8327L57.4731 43.8228L55.803 43.4283L54.7008 46.1967C54.661 46.3 54.5925 46.3876 54.5047 46.4476C54.4169 46.5075 54.3139 46.5368 54.21 46.5315C52.827 46.4761 51.4493 46.7425 50.1711 47.3127C50.0751 47.3556 49.9691 47.3661 49.8674 47.3429C49.7656 47.3196 49.6728 47.2637 49.6013 47.1825L47.674 44.9956L46.2365 45.9887L47.2792 48.7874C47.3175 48.8904 47.3259 49.0034 47.3035 49.1116C47.281 49.2199 47.2288 49.3184 47.1535 49.3942C46.1405 50.4065 45.3436 51.6424 44.8175 53.0171C44.7765 53.1195 44.7082 53.2066 44.6212 53.2673C44.5343 53.3281 44.4325 53.3599 44.3288 53.3586L41.519 53.277L41.1596 55.0738L43.7379 56.2572C43.8333 56.3009 43.9142 56.3747 43.9699 56.4689C44.0255 56.5631 44.0533 56.6731 44.0495 56.7846C43.9961 58.2708 44.2441 59.7517 44.7765 61.1247C44.8164 61.2279 44.8262 61.3417 44.8045 61.4511C44.7829 61.5605 44.7309 61.6602 44.6553 61.737L42.6197 63.8086L43.5438 65.3533L46.1441 64.2279C46.2406 64.1862 46.3466 64.1769 46.4481 64.2013C46.5496 64.2257 46.6418 64.2827 46.7125 64.3647C47.652 65.4569 48.8016 66.3163 50.0813 66.8831C50.1771 66.926 50.2586 66.9991 50.3149 67.0928C50.3713 67.1865 50.3999 67.2963 50.397 67.4078L50.3221 70.4161Z" fill="#1B6EB8" stroke="#1B6EB8"/>
<path d="M53.9119 64.1766C52.7714 64.1797 51.6497 63.8635 50.6574 63.2592C49.665 62.655 48.8363 61.7834 48.2526 60.7304C47.669 59.6773 47.3506 58.4791 47.3288 57.2537C47.3071 56.0282 47.5826 54.8178 48.1284 53.7416C48.6742 52.6654 49.4714 51.7605 50.4416 51.1159C51.4117 50.4714 52.5213 50.1094 53.6612 50.0657C54.801 50.022 55.9318 50.298 56.9422 50.8666C57.9527 51.4352 58.8079 52.2767 59.4237 53.3084C60.0608 54.3732 60.4196 55.6026 60.4623 56.8677C60.505 58.1328 60.23 59.3869 59.6663 60.4985C59.1026 61.6101 58.2708 62.5381 57.2584 63.1853C56.2459 63.8324 55.09 64.1748 53.9119 64.1766ZM53.8858 51.1668C52.6542 51.1684 51.4583 51.6105 50.4865 52.4235C49.5148 53.2364 48.8225 54.3739 48.519 55.6564C48.2155 56.939 48.3179 58.2936 48.8102 59.5067C49.3025 60.7197 50.1566 61.7221 51.2378 62.3558C52.3189 62.9894 53.5656 63.2182 54.7812 63.0061C55.9968 62.794 57.1121 62.153 57.9512 61.1843C58.7902 60.2156 59.3052 58.9743 59.4151 57.6562C59.5249 56.3381 59.2232 55.0182 58.5576 53.9048C58.055 53.064 57.3637 52.3726 56.5473 51.8941C55.7309 51.4157 54.8157 51.1655 53.8858 51.1668Z" fill="#1B6EB8" stroke="#1B6EB8"/>
</svg>
