<svg width="69" height="59" viewBox="0 0 69 59" fill="none" xmlns="http://www.w3.org/2000/svg">
<path d="M61.0344 51.8403H6.67062C6.53446 51.8403 6.40387 51.7822 6.3076 51.6788C6.21132 51.5753 6.15723 51.435 6.15723 51.2887V35.3616C6.15723 35.2152 6.21132 35.0749 6.3076 34.9715C6.40387 34.868 6.53446 34.8099 6.67062 34.8099H61.0344C61.1705 34.8099 61.3011 34.868 61.3974 34.9715C61.4937 35.0749 61.5478 35.2152 61.5478 35.3616V51.2887C61.5478 51.435 61.4937 51.5753 61.3974 51.6788C61.3011 51.7822 61.1705 51.8403 61.0344 51.8403ZM7.184 50.737H60.521V35.9132H7.184V50.737Z" fill="#1B6EB8" stroke="#1B6EB8"/>
<path d="M55.8498 40.0642C55.7137 40.0642 55.5831 40.006 55.4868 39.9026C55.3905 39.7991 55.3364 39.6588 55.3364 39.5125V35.3627C55.3364 35.2164 55.3905 35.0761 55.4868 34.9726C55.5831 34.8692 55.7137 34.811 55.8498 34.811C55.986 34.811 56.1166 34.8692 56.2128 34.9726C56.3091 35.0761 56.3632 35.2164 56.3632 35.3627V39.5125C56.3632 39.6588 56.3091 39.7991 56.2128 39.9026C56.1166 40.006 55.986 40.0642 55.8498 40.0642Z" fill="#1B6EB8" stroke="#1B6EB8"/>
<path d="M48.5173 39.1942C48.3811 39.1942 48.2506 39.136 48.1543 39.0326C48.058 38.9291 48.0039 38.7888 48.0039 38.6425V35.3627C48.0039 35.2164 48.058 35.0761 48.1543 34.9726C48.2506 34.8692 48.3811 34.811 48.5173 34.811C48.6535 34.811 48.784 34.8692 48.8803 34.9726C48.9766 35.0761 49.0307 35.2164 49.0307 35.3627V38.6425C49.0307 38.7888 48.9766 38.9291 48.8803 39.0326C48.784 39.136 48.6535 39.1942 48.5173 39.1942Z" fill="#1B6EB8" stroke="#1B6EB8"/>
<path d="M41.1853 40.0642C41.0491 40.0642 40.9185 40.006 40.8222 39.9026C40.726 39.7991 40.6719 39.6588 40.6719 39.5125V35.3627C40.6719 35.2164 40.726 35.0761 40.8222 34.9726C40.9185 34.8692 41.0491 34.811 41.1853 34.811C41.3214 34.811 41.452 34.8692 41.5483 34.9726C41.6446 35.0761 41.6987 35.2164 41.6987 35.3627V39.5125C41.6987 39.6588 41.6446 39.7991 41.5483 39.9026C41.452 40.006 41.3214 40.0642 41.1853 40.0642Z" fill="#1B6EB8" stroke="#1B6EB8"/>
<path d="M33.8527 39.1942C33.7166 39.1942 33.586 39.136 33.4897 39.0326C33.3934 38.9291 33.3394 38.7888 33.3394 38.6425V35.3627C33.3394 35.2164 33.3934 35.0761 33.4897 34.9726C33.586 34.8692 33.7166 34.811 33.8527 34.811C33.9889 34.811 34.1195 34.8692 34.2158 34.9726C34.312 35.0761 34.3661 35.2164 34.3661 35.3627V38.6425C34.3661 38.7888 34.312 38.9291 34.2158 39.0326C34.1195 39.136 33.9889 39.1942 33.8527 39.1942Z" fill="#1B6EB8" stroke="#1B6EB8"/>
<path d="M26.5207 40.0642C26.3846 40.0642 26.254 40.006 26.1577 39.9026C26.0614 39.7991 26.0073 39.6588 26.0073 39.5125V35.3627C26.0073 35.2164 26.0614 35.0761 26.1577 34.9726C26.254 34.8692 26.3846 34.811 26.5207 34.811C26.6569 34.811 26.7875 34.8692 26.8837 34.9726C26.98 35.0761 27.0341 35.2164 27.0341 35.3627V39.5125C27.0341 39.6588 26.98 39.7991 26.8837 39.9026C26.7875 40.006 26.6569 40.0642 26.5207 40.0642Z" fill="#1B6EB8" stroke="#1B6EB8"/>
<path d="M19.1887 39.1942C19.0525 39.1942 18.9219 39.136 18.8257 39.0326C18.7294 38.9291 18.6753 38.7888 18.6753 38.6425V35.3627C18.6753 35.2164 18.7294 35.0761 18.8257 34.9726C18.9219 34.8692 19.0525 34.811 19.1887 34.811C19.3248 34.811 19.4554 34.8692 19.5517 34.9726C19.648 35.0761 19.7021 35.2164 19.7021 35.3627V38.6425C19.7021 38.7888 19.648 38.9291 19.5517 39.0326C19.4554 39.136 19.3248 39.1942 19.1887 39.1942Z" fill="#1B6EB8" stroke="#1B6EB8"/>
<path d="M11.8562 40.0642C11.72 40.0642 11.5894 40.006 11.4931 39.9026C11.3969 39.7991 11.3428 39.6588 11.3428 39.5125V35.3627C11.3428 35.2164 11.3969 35.0761 11.4931 34.9726C11.5894 34.8692 11.72 34.811 11.8562 34.811C11.9923 34.811 12.1229 34.8692 12.2192 34.9726C12.3155 35.0761 12.3696 35.2164 12.3696 35.3627V39.5125C12.3696 39.6588 12.3155 39.7991 12.2192 39.9026C12.1229 40.006 11.9923 40.0642 11.8562 40.0642Z" fill="#1B6EB8" stroke="#1B6EB8"/>
<path d="M54.0185 48.3642C53.3788 48.3642 52.7535 48.1604 52.2216 47.7785C51.6897 47.3966 51.2752 46.8538 51.0304 46.2187C50.7856 45.5836 50.7215 44.8848 50.8463 44.2106C50.9711 43.5364 51.2792 42.9171 51.7315 42.431C52.1838 41.9449 52.7601 41.6139 53.3875 41.4798C54.0149 41.3457 54.6653 41.4145 55.2563 41.6776C55.8473 41.9407 56.3524 42.3861 56.7078 42.9577C57.0632 43.5293 57.2529 44.2012 57.2529 44.8886C57.2519 45.8101 56.9109 46.6935 56.3045 47.3451C55.6982 47.9967 54.876 48.3632 54.0185 48.3642ZM54.0185 42.5164C53.5819 42.5164 53.1551 42.6555 52.7921 42.9162C52.429 43.1769 52.1461 43.5473 51.979 43.9808C51.8119 44.4143 51.7682 44.8913 51.8534 45.3514C51.9386 45.8116 52.1488 46.2343 52.4575 46.5661C52.7663 46.8978 53.1596 47.1238 53.5879 47.2153C54.0161 47.3068 54.4599 47.2598 54.8633 47.0803C55.2667 46.9007 55.6115 46.5967 55.8541 46.2066C56.0966 45.8165 56.2261 45.3578 56.2261 44.8886C56.2261 44.2595 55.9935 43.6561 55.5795 43.2112C55.1655 42.7663 54.604 42.5164 54.0185 42.5164Z" fill="#1B6EB8" stroke="#1B6EB8"/>
<path d="M59.6515 28.9251H17.1809C17.0447 28.9251 16.9141 28.867 16.8179 28.7635C16.7216 28.66 16.6675 28.5197 16.6675 28.3734V17.1626C16.6675 17.0163 16.7216 16.876 16.8179 16.7725C16.9141 16.6691 17.0447 16.611 17.1809 16.611H59.6515C60.6977 16.611 61.551 17.6989 61.551 19.0384V26.501C61.5484 27.8377 60.6977 28.9251 59.6515 28.9251ZM17.6943 27.8217H59.6515C60.1233 27.8217 60.5242 27.2149 60.5242 26.501V19.0384C60.5242 18.3212 60.1258 17.7143 59.6515 17.7143H17.6943V27.8217Z" fill="#1B6EB8" stroke="#1B6EB8"/>
<path d="M17.1798 28.9251C17.1019 28.9254 17.025 28.9065 16.955 28.8699L6.4454 23.3531C6.35966 23.3077 6.2874 23.2376 6.23675 23.1505C6.1861 23.0634 6.15907 22.9629 6.1587 22.8602C6.15832 22.7575 6.18462 22.6568 6.23464 22.5693C6.28465 22.4818 6.3564 22.4111 6.4418 22.365L16.9509 16.67C17.0113 16.6347 17.0777 16.6128 17.1461 16.6056C17.2145 16.5985 17.2836 16.6061 17.3492 16.6282C17.4148 16.6502 17.4756 16.6862 17.528 16.734C17.5805 16.7818 17.6234 16.8404 17.6544 16.9063C17.6853 16.9723 17.7036 17.0443 17.7082 17.118C17.7128 17.1917 17.7036 17.2656 17.681 17.3354C17.6585 17.4052 17.6232 17.4695 17.5771 17.5243C17.5311 17.5792 17.4752 17.6235 17.4129 17.6547L7.82795 22.8494L17.4078 27.878C17.5125 27.9325 17.5969 28.0236 17.6471 28.1363C17.6973 28.2491 17.7104 28.3769 17.6842 28.4987C17.658 28.6205 17.5941 28.7291 17.5029 28.8068C17.4118 28.8845 17.2987 28.9266 17.1824 28.9262L17.1798 28.9251Z" fill="#1B6EB8" stroke="#1B6EB8"/>
<path d="M54.154 28.9234C54.0179 28.9234 53.8873 28.8653 53.791 28.7619C53.6947 28.6584 53.6406 28.5181 53.6406 28.3718V17.1626C53.6406 17.0163 53.6947 16.876 53.791 16.7725C53.8873 16.6691 54.0179 16.611 54.154 16.611C54.2902 16.611 54.4208 16.6691 54.517 16.7725C54.6133 16.876 54.6674 17.0163 54.6674 17.1626V28.3718C54.6674 28.5181 54.6133 28.6584 54.517 28.7619C54.4208 28.8653 54.2902 28.9234 54.154 28.9234Z" fill="#1B6EB8" stroke="#1B6EB8"/>
<path d="M48.6252 28.9234C48.489 28.9234 48.3585 28.8653 48.2622 28.7619C48.1659 28.6584 48.1118 28.5181 48.1118 28.3718V17.1626C48.1118 17.0163 48.1659 16.876 48.2622 16.7725C48.3585 16.6691 48.489 16.611 48.6252 16.611C48.7614 16.611 48.8919 16.6691 48.9882 16.7725C49.0845 16.876 49.1386 17.0163 49.1386 17.1626V28.3718C49.1386 28.5181 49.0845 28.6584 48.9882 28.7619C48.8919 28.8653 48.7614 28.9234 48.6252 28.9234Z" fill="#1B6EB8" stroke="#1B6EB8"/>
<path d="M64.3681 58.3944H4.37245C3.47835 58.3932 2.62119 58.011 1.98897 57.3316C1.35675 56.6522 1.00109 55.7311 1 54.7704V13.6804C1.00109 12.7196 1.35675 11.7985 1.98897 11.1191C2.62119 10.4398 3.47835 10.0576 4.37245 10.0564H64.3681C65.2622 10.0576 66.1193 10.4398 66.7515 11.1191C67.3838 11.7985 67.7394 12.7196 67.7405 13.6804V54.7704C67.7394 55.7311 67.3838 56.6522 66.7515 57.3316C66.1193 58.011 65.2622 58.3932 64.3681 58.3944ZM4.37245 11.1598C3.75059 11.1606 3.15443 11.4265 2.71471 11.899C2.27499 12.3715 2.02759 13.0122 2.02678 13.6804V54.7704C2.02759 55.4386 2.27499 56.0792 2.71471 56.5518C3.15443 57.0243 3.75059 57.2901 4.37245 57.291H64.3681C64.9899 57.2901 65.5861 57.0243 66.0258 56.5518C66.4655 56.0792 66.7129 55.4386 66.7137 54.7704V13.6804C66.7129 13.0122 66.4655 12.3715 66.0258 11.899C65.5861 11.4265 64.9899 11.1606 64.3681 11.1598H4.37245Z" fill="#1B6EB8" stroke="#1B6EB8"/>
<path d="M47.6339 11.1598H21.1071C20.971 11.1598 20.8404 11.1017 20.7441 10.9982C20.6478 10.8947 20.5938 10.7544 20.5938 10.6081V4.05244C20.5947 3.12014 20.9398 2.22632 21.5532 1.56708C22.1667 0.907841 22.9985 0.537033 23.8661 0.536011H44.875C45.7426 0.537033 46.5743 0.907841 47.1878 1.56708C47.8013 2.22632 48.1464 3.12014 48.1473 4.05244V10.6081C48.1473 10.7544 48.0932 10.8947 47.997 10.9982C47.9007 11.1017 47.7701 11.1598 47.6339 11.1598ZM21.6205 10.0564H47.1205V4.05244C47.1199 3.41268 46.8831 2.79933 46.4621 2.34695C46.0411 1.89457 45.4703 1.64011 44.875 1.63938H23.8661C23.2707 1.64011 22.7 1.89457 22.279 2.34695C21.858 2.79933 21.6212 3.41268 21.6205 4.05244V10.0564Z" fill="#1B6EB8" stroke="#1B6EB8"/>
<path d="M61.0344 51.8403H6.67062C6.53446 51.8403 6.40387 51.7822 6.3076 51.6788C6.21132 51.5753 6.15723 51.435 6.15723 51.2887V35.3616C6.15723 35.2152 6.21132 35.0749 6.3076 34.9715C6.40387 34.868 6.53446 34.8099 6.67062 34.8099H61.0344C61.1705 34.8099 61.3011 34.868 61.3974 34.9715C61.4937 35.0749 61.5478 35.2152 61.5478 35.3616V51.2887C61.5478 51.435 61.4937 51.5753 61.3974 51.6788C61.3011 51.7822 61.1705 51.8403 61.0344 51.8403ZM7.184 50.737H60.521V35.9132H7.184V50.737Z" fill="#1B6EB8" stroke="#1B6EB8"/>
<path d="M55.8498 40.0642C55.7137 40.0642 55.5831 40.006 55.4868 39.9026C55.3905 39.7991 55.3364 39.6588 55.3364 39.5125V35.3627C55.3364 35.2164 55.3905 35.0761 55.4868 34.9726C55.5831 34.8692 55.7137 34.811 55.8498 34.811C55.986 34.811 56.1166 34.8692 56.2128 34.9726C56.3091 35.0761 56.3632 35.2164 56.3632 35.3627V39.5125C56.3632 39.6588 56.3091 39.7991 56.2128 39.9026C56.1166 40.006 55.986 40.0642 55.8498 40.0642Z" fill="#1B6EB8" stroke="#1B6EB8"/>
<path d="M48.5173 39.1942C48.3811 39.1942 48.2506 39.136 48.1543 39.0326C48.058 38.9291 48.0039 38.7888 48.0039 38.6425V35.3627C48.0039 35.2164 48.058 35.0761 48.1543 34.9726C48.2506 34.8692 48.3811 34.811 48.5173 34.811C48.6535 34.811 48.784 34.8692 48.8803 34.9726C48.9766 35.0761 49.0307 35.2164 49.0307 35.3627V38.6425C49.0307 38.7888 48.9766 38.9291 48.8803 39.0326C48.784 39.136 48.6535 39.1942 48.5173 39.1942Z" fill="#1B6EB8" stroke="#1B6EB8"/>
<path d="M41.1853 40.0642C41.0491 40.0642 40.9185 40.006 40.8222 39.9026C40.726 39.7991 40.6719 39.6588 40.6719 39.5125V35.3627C40.6719 35.2164 40.726 35.0761 40.8222 34.9726C40.9185 34.8692 41.0491 34.811 41.1853 34.811C41.3214 34.811 41.452 34.8692 41.5483 34.9726C41.6446 35.0761 41.6987 35.2164 41.6987 35.3627V39.5125C41.6987 39.6588 41.6446 39.7991 41.5483 39.9026C41.452 40.006 41.3214 40.0642 41.1853 40.0642Z" fill="#1B6EB8" stroke="#1B6EB8"/>
<path d="M33.8527 39.1942C33.7166 39.1942 33.586 39.136 33.4897 39.0326C33.3934 38.9291 33.3394 38.7888 33.3394 38.6425V35.3627C33.3394 35.2164 33.3934 35.0761 33.4897 34.9726C33.586 34.8692 33.7166 34.811 33.8527 34.811C33.9889 34.811 34.1195 34.8692 34.2158 34.9726C34.312 35.0761 34.3661 35.2164 34.3661 35.3627V38.6425C34.3661 38.7888 34.312 38.9291 34.2158 39.0326C34.1195 39.136 33.9889 39.1942 33.8527 39.1942Z" fill="#1B6EB8" stroke="#1B6EB8"/>
<path d="M26.5207 40.0642C26.3846 40.0642 26.254 40.006 26.1577 39.9026C26.0614 39.7991 26.0073 39.6588 26.0073 39.5125V35.3627C26.0073 35.2164 26.0614 35.0761 26.1577 34.9726C26.254 34.8692 26.3846 34.811 26.5207 34.811C26.6569 34.811 26.7875 34.8692 26.8837 34.9726C26.98 35.0761 27.0341 35.2164 27.0341 35.3627V39.5125C27.0341 39.6588 26.98 39.7991 26.8837 39.9026C26.7875 40.006 26.6569 40.0642 26.5207 40.0642Z" fill="#1B6EB8" stroke="#1B6EB8"/>
<path d="M19.1887 39.1942C19.0525 39.1942 18.9219 39.136 18.8257 39.0326C18.7294 38.9291 18.6753 38.7888 18.6753 38.6425V35.3627C18.6753 35.2164 18.7294 35.0761 18.8257 34.9726C18.9219 34.8692 19.0525 34.811 19.1887 34.811C19.3248 34.811 19.4554 34.8692 19.5517 34.9726C19.648 35.0761 19.7021 35.2164 19.7021 35.3627V38.6425C19.7021 38.7888 19.648 38.9291 19.5517 39.0326C19.4554 39.136 19.3248 39.1942 19.1887 39.1942Z" fill="#1B6EB8" stroke="#1B6EB8"/>
<path d="M11.8562 40.0642C11.72 40.0642 11.5894 40.006 11.4931 39.9026C11.3969 39.7991 11.3428 39.6588 11.3428 39.5125V35.3627C11.3428 35.2164 11.3969 35.0761 11.4931 34.9726C11.5894 34.8692 11.72 34.811 11.8562 34.811C11.9923 34.811 12.1229 34.8692 12.2192 34.9726C12.3155 35.0761 12.3696 35.2164 12.3696 35.3627V39.5125C12.3696 39.6588 12.3155 39.7991 12.2192 39.9026C12.1229 40.006 11.9923 40.0642 11.8562 40.0642Z" fill="#1B6EB8" stroke="#1B6EB8"/>
<path d="M54.0185 48.3642C53.3788 48.3642 52.7535 48.1604 52.2216 47.7785C51.6897 47.3966 51.2752 46.8538 51.0304 46.2187C50.7856 45.5836 50.7215 44.8848 50.8463 44.2106C50.9711 43.5364 51.2792 42.9171 51.7315 42.431C52.1838 41.9449 52.7601 41.6139 53.3875 41.4798C54.0149 41.3457 54.6653 41.4145 55.2563 41.6776C55.8473 41.9407 56.3524 42.3861 56.7078 42.9577C57.0632 43.5293 57.2529 44.2012 57.2529 44.8886C57.2519 45.8101 56.9109 46.6935 56.3045 47.3451C55.6982 47.9967 54.876 48.3632 54.0185 48.3642ZM54.0185 42.5164C53.5819 42.5164 53.1551 42.6555 52.7921 42.9162C52.429 43.1769 52.1461 43.5473 51.979 43.9808C51.8119 44.4143 51.7682 44.8913 51.8534 45.3514C51.9386 45.8116 52.1488 46.2343 52.4575 46.5661C52.7663 46.8978 53.1596 47.1238 53.5879 47.2153C54.0161 47.3068 54.4599 47.2598 54.8633 47.0803C55.2667 46.9007 55.6115 46.5967 55.8541 46.2066C56.0966 45.8165 56.2261 45.3578 56.2261 44.8886C56.2261 44.2595 55.9935 43.6561 55.5795 43.2112C55.1655 42.7663 54.604 42.5164 54.0185 42.5164Z" fill="#1B6EB8" stroke="#1B6EB8"/>
<path d="M59.6515 28.9251H17.1809C17.0447 28.9251 16.9141 28.867 16.8179 28.7635C16.7216 28.66 16.6675 28.5197 16.6675 28.3734V17.1626C16.6675 17.0163 16.7216 16.876 16.8179 16.7725C16.9141 16.6691 17.0447 16.611 17.1809 16.611H59.6515C60.6977 16.611 61.551 17.6989 61.551 19.0384V26.501C61.5484 27.8377 60.6977 28.9251 59.6515 28.9251ZM17.6943 27.8217H59.6515C60.1233 27.8217 60.5242 27.2149 60.5242 26.501V19.0384C60.5242 18.3212 60.1258 17.7143 59.6515 17.7143H17.6943V27.8217Z" fill="#1B6EB8" stroke="#1B6EB8"/>
<path d="M17.1798 28.9251C17.1019 28.9254 17.025 28.9065 16.955 28.8699L6.4454 23.3531C6.35966 23.3077 6.2874 23.2376 6.23675 23.1505C6.1861 23.0634 6.15907 22.9629 6.1587 22.8602C6.15832 22.7575 6.18462 22.6568 6.23464 22.5693C6.28465 22.4818 6.3564 22.4111 6.4418 22.365L16.9509 16.67C17.0113 16.6347 17.0777 16.6128 17.1461 16.6056C17.2145 16.5985 17.2836 16.6061 17.3492 16.6282C17.4148 16.6502 17.4756 16.6862 17.528 16.734C17.5805 16.7818 17.6234 16.8404 17.6544 16.9063C17.6853 16.9723 17.7036 17.0443 17.7082 17.118C17.7128 17.1917 17.7036 17.2656 17.681 17.3354C17.6585 17.4052 17.6232 17.4695 17.5771 17.5243C17.5311 17.5792 17.4752 17.6235 17.4129 17.6547L7.82795 22.8494L17.4078 27.878C17.5125 27.9325 17.5969 28.0236 17.6471 28.1363C17.6973 28.2491 17.7104 28.3769 17.6842 28.4987C17.658 28.6205 17.5941 28.7291 17.5029 28.8068C17.4118 28.8845 17.2987 28.9266 17.1824 28.9262L17.1798 28.9251Z" fill="#1B6EB8" stroke="#1B6EB8"/>
<path d="M54.154 28.9234C54.0179 28.9234 53.8873 28.8653 53.791 28.7619C53.6947 28.6584 53.6406 28.5181 53.6406 28.3718V17.1626C53.6406 17.0163 53.6947 16.876 53.791 16.7725C53.8873 16.6691 54.0179 16.611 54.154 16.611C54.2902 16.611 54.4208 16.6691 54.517 16.7725C54.6133 16.876 54.6674 17.0163 54.6674 17.1626V28.3718C54.6674 28.5181 54.6133 28.6584 54.517 28.7619C54.4208 28.8653 54.2902 28.9234 54.154 28.9234Z" fill="#1B6EB8" stroke="#1B6EB8"/>
<path d="M48.6252 28.9234C48.489 28.9234 48.3585 28.8653 48.2622 28.7619C48.1659 28.6584 48.1118 28.5181 48.1118 28.3718V17.1626C48.1118 17.0163 48.1659 16.876 48.2622 16.7725C48.3585 16.6691 48.489 16.611 48.6252 16.611C48.7614 16.611 48.8919 16.6691 48.9882 16.7725C49.0845 16.876 49.1386 17.0163 49.1386 17.1626V28.3718C49.1386 28.5181 49.0845 28.6584 48.9882 28.7619C48.8919 28.8653 48.7614 28.9234 48.6252 28.9234Z" fill="#1B6EB8" stroke="#1B6EB8"/>
<path d="M64.3681 58.3944H4.37245C3.47835 58.3932 2.62119 58.011 1.98897 57.3316C1.35675 56.6522 1.00109 55.7311 1 54.7704V13.6804C1.00109 12.7196 1.35675 11.7985 1.98897 11.1191C2.62119 10.4398 3.47835 10.0576 4.37245 10.0564H64.3681C65.2622 10.0576 66.1193 10.4398 66.7515 11.1191C67.3838 11.7985 67.7394 12.7196 67.7405 13.6804V54.7704C67.7394 55.7311 67.3838 56.6522 66.7515 57.3316C66.1193 58.011 65.2622 58.3932 64.3681 58.3944ZM4.37245 11.1598C3.75059 11.1606 3.15443 11.4265 2.71471 11.899C2.27499 12.3715 2.02759 13.0122 2.02678 13.6804V54.7704C2.02759 55.4386 2.27499 56.0792 2.71471 56.5518C3.15443 57.0243 3.75059 57.2901 4.37245 57.291H64.3681C64.9899 57.2901 65.5861 57.0243 66.0258 56.5518C66.4655 56.0792 66.7129 55.4386 66.7137 54.7704V13.6804C66.7129 13.0122 66.4655 12.3715 66.0258 11.899C65.5861 11.4265 64.9899 11.1606 64.3681 11.1598H4.37245Z" fill="#1B6EB8" stroke="#1B6EB8"/>
<path d="M47.6339 11.1598H21.1071C20.971 11.1598 20.8404 11.1017 20.7441 10.9982C20.6478 10.8947 20.5938 10.7544 20.5938 10.6081V4.05244C20.5947 3.12014 20.9398 2.22632 21.5532 1.56708C22.1667 0.907841 22.9985 0.537033 23.8661 0.536011H44.875C45.7426 0.537033 46.5743 0.907841 47.1878 1.56708C47.8013 2.22632 48.1464 3.12014 48.1473 4.05244V10.6081C48.1473 10.7544 48.0932 10.8947 47.997 10.9982C47.9007 11.1017 47.7701 11.1598 47.6339 11.1598ZM21.6205 10.0564H47.1205V4.05244C47.1199 3.41268 46.8831 2.79933 46.4621 2.34695C46.0411 1.89457 45.4703 1.64011 44.875 1.63938H23.8661C23.2707 1.64011 22.7 1.89457 22.279 2.34695C21.858 2.79933 21.6212 3.41268 21.6205 4.05244V10.0564Z" fill="#1B6EB8" stroke="#1B6EB8"/>
</svg>
