<svg width="65" height="74" viewBox="0 0 65 74" fill="none" xmlns="http://www.w3.org/2000/svg">
<path d="M32.5187 72.7189H23.2844C23.1482 72.7189 23.0176 72.6608 22.9214 72.5573C22.8251 72.4538 22.771 72.3135 22.771 72.1672V62.2441C22.771 62.0978 22.8251 61.9574 22.9214 61.854C23.0176 61.7505 23.1482 61.6924 23.2844 61.6924H32.5187C32.6549 61.6924 32.7854 61.7505 32.8817 61.854C32.978 61.9574 33.0321 62.0978 33.0321 62.2441V72.1672C33.0321 72.3135 32.978 72.4538 32.8817 72.5573C32.7854 72.6608 32.6549 72.7189 32.5187 72.7189ZM23.7978 71.6155H32.0053V62.7958H23.7978V71.6155Z" fill="#1B6EB8" stroke="#1B6EB8"/>
<path d="M32.5187 62.7957H23.2844C23.1482 62.7957 23.0176 62.7375 22.9214 62.6341C22.8251 62.5306 22.771 62.3903 22.771 62.244V52.3203C22.771 52.174 22.8251 52.0337 22.9214 51.9302C23.0176 51.8267 23.1482 51.7686 23.2844 51.7686H32.5187C32.6549 51.7686 32.7854 51.8267 32.8817 51.9302C32.978 52.0337 33.0321 52.174 33.0321 52.3203V62.244C33.0321 62.3903 32.978 62.5306 32.8817 62.6341C32.7854 62.7375 32.6549 62.7957 32.5187 62.7957ZM23.7978 61.6923H32.0053V52.872H23.7978V61.6923Z" fill="#1B6EB8" stroke="#1B6EB8"/>
<path d="M41.7536 72.7189H32.5188C32.3826 72.7189 32.252 72.6608 32.1557 72.5573C32.0595 72.4538 32.0054 72.3135 32.0054 72.1672V62.2441C32.0054 62.0978 32.0595 61.9574 32.1557 61.854C32.252 61.7505 32.3826 61.6924 32.5188 61.6924H41.7536C41.8898 61.6924 42.0203 61.7505 42.1166 61.854C42.2129 61.9574 42.267 62.0978 42.267 62.2441V72.1672C42.267 72.3135 42.2129 72.4538 42.1166 72.5573C42.0203 72.6608 41.8898 72.7189 41.7536 72.7189ZM33.0321 71.6155H41.2402V62.7958H33.0321V71.6155Z" fill="#1B6EB8" stroke="#1B6EB8"/>
<path d="M17.8797 72.6262H1.51339C1.37723 72.6262 1.24665 72.5681 1.15037 72.4646C1.05409 72.3612 1 72.2209 1 72.0745V70.0631C1.00163 68.4721 1.59046 66.9468 2.63732 65.8217C3.68418 64.6967 5.10358 64.0638 6.58413 64.0619H12.8085C14.289 64.0638 15.7085 64.6967 16.7554 65.8217C17.8024 66.9467 18.3913 68.4721 18.3931 70.0631V72.0745C18.3931 72.2209 18.339 72.3612 18.2427 72.4646C18.1464 72.5681 18.0159 72.6262 17.8797 72.6262ZM2.02678 71.5229H17.3663V70.0631C17.3651 68.7645 16.8845 67.5195 16.03 66.6013C15.1755 65.683 14.0169 65.1666 12.8085 65.1653H6.58413C5.37577 65.1667 4.2173 65.6832 3.36291 66.6014C2.50852 67.5197 2.028 68.7646 2.02678 70.0631V71.5229Z" fill="#1B6EB8" stroke="#1B6EB8"/>
<path d="M12.3634 65.1652H7.02413C6.88797 65.1652 6.75739 65.1071 6.66111 65.0036C6.56483 64.9002 6.51074 64.7598 6.51074 64.6135V20.0744C6.51074 19.9281 6.56483 19.7878 6.66111 19.6844C6.75739 19.5809 6.88797 19.5228 7.02413 19.5228H12.3634C12.4995 19.5228 12.6301 19.5809 12.7264 19.6844C12.8227 19.7878 12.8768 19.9281 12.8768 20.0744V64.6135C12.8768 64.7598 12.8227 64.9002 12.7264 65.0036C12.6301 65.1071 12.4995 65.1652 12.3634 65.1652ZM7.53752 64.0618H11.85V20.6261H7.53752V64.0618Z" fill="#1B6EB8" stroke="#1B6EB8"/>
<path d="M61.0473 20.6261H3.85372C3.71756 20.6261 3.58698 20.568 3.4907 20.4646C3.39442 20.3611 3.34033 20.2208 3.34033 20.0745V15.1496C3.34033 15.0033 3.39442 14.8629 3.4907 14.7595C3.58698 14.656 3.71756 14.5979 3.85372 14.5979H52.4973C55.2008 14.5979 61.5607 16.9106 61.5607 20.0745C61.5607 20.2208 61.5066 20.3611 61.4103 20.4646C61.314 20.568 61.1834 20.6261 61.0473 20.6261ZM4.36916 19.5228H60.4209C59.6231 17.5411 54.8096 15.7013 52.4973 15.7013H4.36711L4.36916 19.5228Z" fill="#1B6EB8" stroke="#1B6EB8"/>
<path d="M55.8012 16.3633C55.736 16.3632 55.6713 16.3497 55.6108 16.3236L22.5942 2.17233L4.14203 15.6069C4.02922 15.689 3.89069 15.7196 3.75691 15.6919C3.62313 15.6642 3.50506 15.5806 3.42867 15.4594C3.35229 15.3381 3.32384 15.1893 3.3496 15.0455C3.37535 14.9018 3.45319 14.7749 3.566 14.6928L22.2436 1.09489C22.3131 1.04439 22.393 1.01295 22.4764 1.00333C22.5599 0.993714 22.6442 1.00621 22.7221 1.03972L55.9897 15.2996C56.1006 15.3471 56.1927 15.4347 56.25 15.5473C56.3073 15.6598 56.3264 15.7903 56.3038 15.9164C56.2813 16.0424 56.2185 16.156 56.1264 16.2377C56.0343 16.3193 55.9186 16.364 55.7992 16.3638L55.8012 16.3633Z" fill="#1B6EB8" stroke="#1B6EB8"/>
<path d="M24.6741 15.7013H20.2995C20.1634 15.7013 20.0328 15.6432 19.9365 15.5397C19.8402 15.4362 19.7861 15.2959 19.7861 15.1496V10.4498C19.7861 10.3035 19.8402 10.1632 19.9365 10.0597C20.0328 9.95626 20.1634 9.89813 20.2995 9.89813H24.6741C24.8103 9.89813 24.9408 9.95626 25.0371 10.0597C25.1334 10.1632 25.1875 10.3035 25.1875 10.4498V15.1496C25.1875 15.2959 25.1334 15.4362 25.0371 15.5397C24.9408 15.6432 24.8103 15.7013 24.6741 15.7013ZM20.8129 14.5979H24.1607V11.0015H20.8129V14.5979Z" fill="#1B6EB8" stroke="#1B6EB8"/>
<path d="M22.531 11.0015C22.3948 11.0015 22.2642 10.9433 22.1679 10.8399C22.0717 10.7364 22.0176 10.5961 22.0176 10.4498V1.55168C22.0176 1.40537 22.0717 1.26505 22.1679 1.16158C22.2642 1.05812 22.3948 1 22.531 1C22.6671 1 22.7977 1.05812 22.894 1.16158C22.9903 1.26505 23.0444 1.40537 23.0444 1.55168V10.4498C23.0444 10.5961 22.9903 10.7364 22.894 10.8399C22.7977 10.9433 22.6671 11.0015 22.531 11.0015Z" fill="#1B6EB8" stroke="#1B6EB8"/>
<path d="M57.0007 28.5902C56.8645 28.5902 56.734 28.5321 56.6377 28.4287C56.5414 28.3252 56.4873 28.1849 56.4873 28.0386V20.0744C56.4873 19.9281 56.5414 19.7878 56.6377 19.6844C56.734 19.5809 56.8645 19.5228 57.0007 19.5228C57.1369 19.5228 57.2674 19.5809 57.3637 19.6844C57.46 19.7878 57.5141 19.9281 57.5141 20.0744V28.0386C57.5141 28.1849 57.46 28.3252 57.3637 28.4287C57.2674 28.5321 57.1369 28.5902 57.0007 28.5902Z" fill="#1B6EB8" stroke="#1B6EB8"/>
<path d="M57.0004 38.6866C55.9697 38.6863 54.9623 38.3576 54.1055 37.742C53.2487 37.1265 52.581 36.2517 52.1868 35.2284C51.7926 34.2051 51.6896 33.0791 51.8909 31.9929C52.0921 30.9067 52.5886 29.909 53.3175 29.126C54.0464 28.343 54.9749 27.8098 55.9858 27.5938C56.9967 27.3779 58.0444 27.4889 58.9966 27.9128C59.9488 28.3367 60.7626 29.0545 61.3352 29.9754C61.9077 30.8963 62.2133 31.9789 62.2133 33.0865C62.2119 34.5715 61.6621 35.9952 60.6848 37.0452C59.7074 38.0951 58.3824 38.6854 57.0004 38.6866ZM57.0004 28.5908C56.1727 28.5908 55.3637 28.8545 54.6755 29.3487C53.9873 29.8428 53.451 30.5451 53.1343 31.3669C52.8175 32.1886 52.7347 33.0927 52.8962 33.9651C53.0577 34.8374 53.4563 35.6386 54.0416 36.2675C54.6269 36.8963 55.3726 37.3246 56.1843 37.498C56.9961 37.6715 57.8375 37.5823 58.6021 37.2419C59.3668 36.9015 60.0203 36.325 60.48 35.5854C60.9398 34.8459 61.1851 33.9764 61.185 33.087C61.1839 31.8948 60.7427 30.7517 59.9582 29.9086C59.1736 29.0656 58.1099 28.5914 57.0004 28.5903V28.5908Z" fill="#1B6EB8" stroke="#1B6EB8"/>
<path d="M57.0003 35.9039C56.4817 35.9038 55.9749 35.7384 55.5438 35.4288C55.1127 35.1191 54.7767 34.6791 54.5783 34.1642C54.38 33.6494 54.3281 33.0829 54.4293 32.5364C54.5306 31.9899 54.7803 31.488 55.147 31.094C55.5137 30.7 55.9809 30.4317 56.4895 30.3231C56.998 30.2144 57.5252 30.2702 58.0042 30.4835C58.4833 30.6968 58.8928 31.0579 59.1808 31.5212C59.4689 31.9845 59.6227 32.5292 59.6227 33.0864C59.6218 33.8335 59.3453 34.5497 58.8536 35.0779C58.362 35.6061 57.6955 35.9031 57.0003 35.9039ZM57.0003 31.3729C56.6848 31.373 56.3764 31.4736 56.1142 31.6621C55.8519 31.8505 55.6475 32.1183 55.5269 32.4315C55.4063 32.7448 55.3748 33.0894 55.4364 33.4219C55.4981 33.7544 55.6501 34.0598 55.8732 34.2994C56.0964 34.5391 56.3807 34.7022 56.6901 34.7682C56.9995 34.8343 57.3202 34.8002 57.6117 34.6704C57.9031 34.5405 58.1522 34.3208 58.3273 34.0388C58.5025 33.7569 58.596 33.4254 58.5959 33.0864C58.5953 32.632 58.427 32.1963 58.1279 31.875C57.8287 31.5538 57.4232 31.3732 57.0003 31.3729Z" fill="#1B6EB8" stroke="#1B6EB8"/>
<path d="M56.9949 45.8906C56.2488 45.8921 55.5294 45.5925 54.979 45.0512C54.4287 44.5099 54.0874 43.7664 54.0229 42.9676C53.9583 42.1689 54.1752 41.3733 54.6305 40.7381C55.0858 40.103 55.7464 39.6747 56.4815 39.5379V38.135C56.4815 37.9887 56.5356 37.8484 56.6319 37.7449C56.7281 37.6414 56.8587 37.5833 56.9949 37.5833C57.131 37.5833 57.2616 37.6414 57.3579 37.7449C57.4542 37.8484 57.5083 37.9887 57.5083 38.135V40.0422C57.5083 40.1885 57.4542 40.3288 57.3579 40.4323C57.2616 40.5357 57.131 40.5939 56.9949 40.5939C56.609 40.5939 56.2319 40.7168 55.911 40.9472C55.5902 41.1775 55.3402 41.5049 55.1925 41.888C55.0449 42.2711 55.0062 42.6926 55.0815 43.0992C55.1568 43.5059 55.3426 43.8794 55.6154 44.1726C55.8882 44.4658 56.2359 44.6655 56.6143 44.7464C56.9927 44.8273 57.385 44.7857 57.7415 44.6271C58.0979 44.4684 58.4026 44.1997 58.617 43.8549C58.8313 43.5102 58.9458 43.1049 58.9458 42.6903C58.9458 42.5439 58.9998 42.4036 59.0961 42.3002C59.1924 42.1967 59.323 42.1386 59.4591 42.1386C59.5953 42.1386 59.7259 42.1967 59.8222 42.3002C59.9184 42.4036 59.9725 42.5439 59.9725 42.6903C59.9717 43.5387 59.6578 44.3521 59.0995 44.9521C58.5413 45.552 57.7844 45.8895 56.9949 45.8906Z" fill="#1B6EB8" stroke="#1B6EB8"/>
<path d="M63.0521 64.3372H50.9484C50.8123 64.3372 50.6817 64.279 50.5854 64.1756C50.4891 64.0721 50.4351 63.9318 50.4351 63.7855V50.779C50.4351 50.6327 50.4891 50.4923 50.5854 50.3889C50.6817 50.2854 50.8123 50.2273 50.9484 50.2273H63.0521C63.1883 50.2273 63.3188 50.2854 63.4151 50.3889C63.5114 50.4923 63.5655 50.6327 63.5655 50.779V63.7855C63.5655 63.9318 63.5114 64.0721 63.4151 64.1756C63.3188 64.279 63.1883 64.3372 63.0521 64.3372ZM51.4618 63.2338H62.5387V51.3307H51.4618V63.2338Z" fill="#1B6EB8" stroke="#1B6EB8"/>
<path d="M61.7002 51.3307H52.7837C52.6873 51.3306 52.5929 51.3014 52.5113 51.2464C52.4296 51.1915 52.364 51.1129 52.3219 51.0197C52.2799 50.9265 52.2631 50.8225 52.2735 50.7195C52.2839 50.6166 52.321 50.5188 52.3807 50.4375L56.8384 44.369C56.8884 44.3067 56.9502 44.2567 57.0198 44.2224C57.0893 44.1882 57.1649 44.1704 57.2414 44.1704C57.318 44.1704 57.3936 44.1882 57.4631 44.2224C57.5327 44.2567 57.5945 44.3067 57.6445 44.369L62.1022 50.4375C62.1619 50.5189 62.199 50.6167 62.2094 50.7197C62.2198 50.8227 62.203 50.9267 62.1608 51.0199C62.1187 51.1131 62.053 51.1917 61.9713 51.2467C61.8896 51.3016 61.7951 51.3307 61.6987 51.3307H61.7002ZM53.8454 50.2273H60.6421L57.244 45.6003L53.8454 50.2273Z" fill="#1B6EB8" stroke="#1B6EB8"/>
<path d="M32.5187 72.7189H23.2844C23.1482 72.7189 23.0176 72.6608 22.9214 72.5573C22.8251 72.4538 22.771 72.3135 22.771 72.1672V62.2441C22.771 62.0978 22.8251 61.9574 22.9214 61.854C23.0176 61.7505 23.1482 61.6924 23.2844 61.6924H32.5187C32.6549 61.6924 32.7854 61.7505 32.8817 61.854C32.978 61.9574 33.0321 62.0978 33.0321 62.2441V72.1672C33.0321 72.3135 32.978 72.4538 32.8817 72.5573C32.7854 72.6608 32.6549 72.7189 32.5187 72.7189ZM23.7978 71.6155H32.0053V62.7958H23.7978V71.6155Z" fill="#1B6EB8" stroke="#1B6EB8"/>
<path d="M32.5187 62.7957H23.2844C23.1482 62.7957 23.0176 62.7375 22.9214 62.6341C22.8251 62.5306 22.771 62.3903 22.771 62.244V52.3203C22.771 52.174 22.8251 52.0337 22.9214 51.9302C23.0176 51.8267 23.1482 51.7686 23.2844 51.7686H32.5187C32.6549 51.7686 32.7854 51.8267 32.8817 51.9302C32.978 52.0337 33.0321 52.174 33.0321 52.3203V62.244C33.0321 62.3903 32.978 62.5306 32.8817 62.6341C32.7854 62.7375 32.6549 62.7957 32.5187 62.7957ZM23.7978 61.6923H32.0053V52.872H23.7978V61.6923Z" fill="#1B6EB8" stroke="#1B6EB8"/>
<path d="M41.7536 72.7189H32.5188C32.3826 72.7189 32.252 72.6608 32.1557 72.5573C32.0595 72.4538 32.0054 72.3135 32.0054 72.1672V62.2441C32.0054 62.0978 32.0595 61.9574 32.1557 61.854C32.252 61.7505 32.3826 61.6924 32.5188 61.6924H41.7536C41.8898 61.6924 42.0203 61.7505 42.1166 61.854C42.2129 61.9574 42.267 62.0978 42.267 62.2441V72.1672C42.267 72.3135 42.2129 72.4538 42.1166 72.5573C42.0203 72.6608 41.8898 72.7189 41.7536 72.7189ZM33.0321 71.6155H41.2402V62.7958H33.0321V71.6155Z" fill="#1B6EB8" stroke="#1B6EB8"/>
<path d="M17.8797 72.6262H1.51339C1.37723 72.6262 1.24665 72.5681 1.15037 72.4646C1.05409 72.3612 1 72.2209 1 72.0745V70.0631C1.00163 68.4721 1.59046 66.9468 2.63732 65.8217C3.68418 64.6967 5.10358 64.0638 6.58413 64.0619H12.8085C14.289 64.0638 15.7085 64.6967 16.7554 65.8217C17.8024 66.9467 18.3913 68.4721 18.3931 70.0631V72.0745C18.3931 72.2209 18.339 72.3612 18.2427 72.4646C18.1464 72.5681 18.0159 72.6262 17.8797 72.6262ZM2.02678 71.5229H17.3663V70.0631C17.3651 68.7645 16.8845 67.5195 16.03 66.6013C15.1755 65.683 14.0169 65.1666 12.8085 65.1653H6.58413C5.37577 65.1667 4.2173 65.6832 3.36291 66.6014C2.50852 67.5197 2.028 68.7646 2.02678 70.0631V71.5229Z" fill="#1B6EB8" stroke="#1B6EB8"/>
<path d="M12.3634 65.1652H7.02413C6.88797 65.1652 6.75739 65.1071 6.66111 65.0036C6.56483 64.9002 6.51074 64.7598 6.51074 64.6135V20.0744C6.51074 19.9281 6.56483 19.7878 6.66111 19.6844C6.75739 19.5809 6.88797 19.5228 7.02413 19.5228H12.3634C12.4995 19.5228 12.6301 19.5809 12.7264 19.6844C12.8227 19.7878 12.8768 19.9281 12.8768 20.0744V64.6135C12.8768 64.7598 12.8227 64.9002 12.7264 65.0036C12.6301 65.1071 12.4995 65.1652 12.3634 65.1652ZM7.53752 64.0618H11.85V20.6261H7.53752V64.0618Z" fill="#1B6EB8" stroke="#1B6EB8"/>
<path d="M61.0473 20.6261H3.85372C3.71756 20.6261 3.58698 20.568 3.4907 20.4646C3.39442 20.3611 3.34033 20.2208 3.34033 20.0745V15.1496C3.34033 15.0033 3.39442 14.8629 3.4907 14.7595C3.58698 14.656 3.71756 14.5979 3.85372 14.5979H52.4973C55.2008 14.5979 61.5607 16.9106 61.5607 20.0745C61.5607 20.2208 61.5066 20.3611 61.4103 20.4646C61.314 20.568 61.1834 20.6261 61.0473 20.6261ZM4.36916 19.5228H60.4209C59.6231 17.5411 54.8096 15.7013 52.4973 15.7013H4.36711L4.36916 19.5228Z" fill="#1B6EB8" stroke="#1B6EB8"/>
<path d="M55.8012 16.3633C55.736 16.3632 55.6713 16.3497 55.6108 16.3236L22.5942 2.17233L4.14203 15.6069C4.02922 15.689 3.89069 15.7196 3.75691 15.6919C3.62313 15.6642 3.50506 15.5806 3.42867 15.4594C3.35229 15.3381 3.32384 15.1893 3.3496 15.0455C3.37535 14.9018 3.45319 14.7749 3.566 14.6928L22.2436 1.09489C22.3131 1.04439 22.393 1.01295 22.4764 1.00333C22.5599 0.993714 22.6442 1.00621 22.7221 1.03972L55.9897 15.2996C56.1006 15.3471 56.1927 15.4347 56.25 15.5473C56.3073 15.6598 56.3264 15.7903 56.3038 15.9164C56.2813 16.0424 56.2185 16.156 56.1264 16.2377C56.0343 16.3193 55.9186 16.364 55.7992 16.3638L55.8012 16.3633Z" fill="#1B6EB8" stroke="#1B6EB8"/>
<path d="M24.6741 15.7013H20.2995C20.1634 15.7013 20.0328 15.6432 19.9365 15.5397C19.8402 15.4362 19.7861 15.2959 19.7861 15.1496V10.4498C19.7861 10.3035 19.8402 10.1632 19.9365 10.0597C20.0328 9.95626 20.1634 9.89813 20.2995 9.89813H24.6741C24.8103 9.89813 24.9408 9.95626 25.0371 10.0597C25.1334 10.1632 25.1875 10.3035 25.1875 10.4498V15.1496C25.1875 15.2959 25.1334 15.4362 25.0371 15.5397C24.9408 15.6432 24.8103 15.7013 24.6741 15.7013ZM20.8129 14.5979H24.1607V11.0015H20.8129V14.5979Z" fill="#1B6EB8" stroke="#1B6EB8"/>
<path d="M22.531 11.0015C22.3948 11.0015 22.2642 10.9433 22.1679 10.8399C22.0717 10.7364 22.0176 10.5961 22.0176 10.4498V1.55168C22.0176 1.40537 22.0717 1.26505 22.1679 1.16158C22.2642 1.05812 22.3948 1 22.531 1C22.6671 1 22.7977 1.05812 22.894 1.16158C22.9903 1.26505 23.0444 1.40537 23.0444 1.55168V10.4498C23.0444 10.5961 22.9903 10.7364 22.894 10.8399C22.7977 10.9433 22.6671 11.0015 22.531 11.0015Z" fill="#1B6EB8" stroke="#1B6EB8"/>
<path d="M57.0007 28.5902C56.8645 28.5902 56.734 28.5321 56.6377 28.4287C56.5414 28.3252 56.4873 28.1849 56.4873 28.0386V20.0744C56.4873 19.9281 56.5414 19.7878 56.6377 19.6844C56.734 19.5809 56.8645 19.5228 57.0007 19.5228C57.1369 19.5228 57.2674 19.5809 57.3637 19.6844C57.46 19.7878 57.5141 19.9281 57.5141 20.0744V28.0386C57.5141 28.1849 57.46 28.3252 57.3637 28.4287C57.2674 28.5321 57.1369 28.5902 57.0007 28.5902Z" fill="#1B6EB8" stroke="#1B6EB8"/>
<path d="M57.0004 38.6866C55.9697 38.6863 54.9623 38.3576 54.1055 37.742C53.2487 37.1265 52.581 36.2517 52.1868 35.2284C51.7926 34.2051 51.6896 33.0791 51.8909 31.9929C52.0921 30.9067 52.5886 29.909 53.3175 29.126C54.0464 28.343 54.9749 27.8098 55.9858 27.5938C56.9967 27.3779 58.0444 27.4889 58.9966 27.9128C59.9488 28.3367 60.7626 29.0545 61.3352 29.9754C61.9077 30.8963 62.2133 31.9789 62.2133 33.0865C62.2119 34.5715 61.6621 35.9952 60.6848 37.0452C59.7074 38.0951 58.3824 38.6854 57.0004 38.6866ZM57.0004 28.5908C56.1727 28.5908 55.3637 28.8545 54.6755 29.3487C53.9873 29.8428 53.451 30.5451 53.1343 31.3669C52.8175 32.1886 52.7347 33.0927 52.8962 33.9651C53.0577 34.8374 53.4563 35.6386 54.0416 36.2675C54.6269 36.8963 55.3726 37.3246 56.1843 37.498C56.9961 37.6715 57.8375 37.5823 58.6021 37.2419C59.3668 36.9015 60.0203 36.325 60.48 35.5854C60.9398 34.8459 61.1851 33.9764 61.185 33.087C61.1839 31.8948 60.7427 30.7517 59.9582 29.9086C59.1736 29.0656 58.1099 28.5914 57.0004 28.5903V28.5908Z" fill="#1B6EB8" stroke="#1B6EB8"/>
<path d="M57.0003 35.9039C56.4817 35.9038 55.9749 35.7384 55.5438 35.4288C55.1127 35.1191 54.7767 34.6791 54.5783 34.1642C54.38 33.6494 54.3281 33.0829 54.4293 32.5364C54.5306 31.9899 54.7803 31.488 55.147 31.094C55.5137 30.7 55.9809 30.4317 56.4895 30.3231C56.998 30.2144 57.5252 30.2702 58.0042 30.4835C58.4833 30.6968 58.8928 31.0579 59.1808 31.5212C59.4689 31.9845 59.6227 32.5292 59.6227 33.0864C59.6218 33.8335 59.3453 34.5497 58.8536 35.0779C58.362 35.6061 57.6955 35.9031 57.0003 35.9039ZM57.0003 31.3729C56.6848 31.373 56.3764 31.4736 56.1142 31.6621C55.8519 31.8505 55.6475 32.1183 55.5269 32.4315C55.4063 32.7448 55.3748 33.0894 55.4364 33.4219C55.4981 33.7544 55.6501 34.0598 55.8732 34.2994C56.0964 34.5391 56.3807 34.7022 56.6901 34.7682C56.9995 34.8343 57.3202 34.8002 57.6117 34.6704C57.9031 34.5405 58.1522 34.3208 58.3273 34.0388C58.5025 33.7569 58.596 33.4254 58.5959 33.0864C58.5953 32.632 58.427 32.1963 58.1279 31.875C57.8287 31.5538 57.4232 31.3732 57.0003 31.3729Z" fill="#1B6EB8" stroke="#1B6EB8"/>
<path d="M56.9949 45.8906C56.2488 45.8921 55.5294 45.5925 54.979 45.0512C54.4287 44.5099 54.0874 43.7664 54.0229 42.9676C53.9583 42.1689 54.1752 41.3733 54.6305 40.7381C55.0858 40.103 55.7464 39.6747 56.4815 39.5379V38.135C56.4815 37.9887 56.5356 37.8484 56.6319 37.7449C56.7281 37.6414 56.8587 37.5833 56.9949 37.5833C57.131 37.5833 57.2616 37.6414 57.3579 37.7449C57.4542 37.8484 57.5083 37.9887 57.5083 38.135V40.0422C57.5083 40.1885 57.4542 40.3288 57.3579 40.4323C57.2616 40.5357 57.131 40.5939 56.9949 40.5939C56.609 40.5939 56.2319 40.7168 55.911 40.9472C55.5902 41.1775 55.3402 41.5049 55.1925 41.888C55.0449 42.2711 55.0062 42.6926 55.0815 43.0992C55.1568 43.5059 55.3426 43.8794 55.6154 44.1726C55.8882 44.4658 56.2359 44.6655 56.6143 44.7464C56.9927 44.8273 57.385 44.7857 57.7415 44.6271C58.0979 44.4684 58.4026 44.1997 58.617 43.8549C58.8313 43.5102 58.9458 43.1049 58.9458 42.6903C58.9458 42.5439 58.9998 42.4036 59.0961 42.3002C59.1924 42.1967 59.323 42.1386 59.4591 42.1386C59.5953 42.1386 59.7259 42.1967 59.8222 42.3002C59.9184 42.4036 59.9725 42.5439 59.9725 42.6903C59.9717 43.5387 59.6578 44.3521 59.0995 44.9521C58.5413 45.552 57.7844 45.8895 56.9949 45.8906Z" fill="#1B6EB8" stroke="#1B6EB8"/>
<path d="M63.0521 64.3372H50.9484C50.8123 64.3372 50.6817 64.279 50.5854 64.1756C50.4891 64.0721 50.4351 63.9318 50.4351 63.7855V50.779C50.4351 50.6327 50.4891 50.4923 50.5854 50.3889C50.6817 50.2854 50.8123 50.2273 50.9484 50.2273H63.0521C63.1883 50.2273 63.3188 50.2854 63.4151 50.3889C63.5114 50.4923 63.5655 50.6327 63.5655 50.779V63.7855C63.5655 63.9318 63.5114 64.0721 63.4151 64.1756C63.3188 64.279 63.1883 64.3372 63.0521 64.3372ZM51.4618 63.2338H62.5387V51.3307H51.4618V63.2338Z" fill="#1B6EB8" stroke="#1B6EB8"/>
<path d="M61.7002 51.3307H52.7837C52.6873 51.3306 52.5929 51.3014 52.5113 51.2464C52.4296 51.1915 52.364 51.1129 52.3219 51.0197C52.2799 50.9265 52.2631 50.8225 52.2735 50.7195C52.2839 50.6166 52.321 50.5188 52.3807 50.4375L56.8384 44.369C56.8884 44.3067 56.9502 44.2567 57.0198 44.2224C57.0893 44.1882 57.1649 44.1704 57.2414 44.1704C57.318 44.1704 57.3936 44.1882 57.4631 44.2224C57.5327 44.2567 57.5945 44.3067 57.6445 44.369L62.1022 50.4375C62.1619 50.5189 62.199 50.6167 62.2094 50.7197C62.2198 50.8227 62.203 50.9267 62.1608 51.0199C62.1187 51.1131 62.053 51.1917 61.9713 51.2467C61.8896 51.3016 61.7951 51.3307 61.6987 51.3307H61.7002ZM53.8454 50.2273H60.6421L57.244 45.6003L53.8454 50.2273Z" fill="#1B6EB8" stroke="#1B6EB8"/>
</svg>
